<?xml version="1.0" encoding="utf-8"?>
<!-- Generator: Adobe Illustrator 16.0.3, SVG Export Plug-In . SVG Version: 6.00 Build 0)  -->
<!DOCTYPE svg PUBLIC "-//W3C//DTD SVG 1.1//EN" "http://www.w3.org/Graphics/SVG/1.1/DTD/svg11.dtd">
<svg version="1.1" id="Ebene_1" xmlns="http://www.w3.org/2000/svg" xmlns:xlink="http://www.w3.org/1999/xlink" x="0px" y="0px"
	 width="192.487px" height="62.856px" viewBox="0 0 192.487 62.856" enable-background="new 0 0 192.487 62.856"
	 xml:space="preserve">
<g>
	<g>
		<rect x="37.875" y="45.502" fill="#40382B" width="12.173" height="15.146"/>
		<path fill="#40382B" d="M16.91,45.502c0.501,0.767,0.755,1.729,0.755,2.896c0,1.353-0.482,2.457-1.443,3.316
			c-0.963,0.858-2.224,1.287-3.785,1.287c-1.354,0-2.744-0.246-4.175-0.741c-1.431-0.494-2.535-1.054-3.316-1.677l-3.121,7.725
			c1.353,0.885,3.121,1.613,5.307,2.185c2.185,0.572,4.526,0.858,7.023,0.858c4.889,0,8.778-1.26,11.666-3.785
			c2.888-2.522,4.331-5.683,4.331-9.48c0-0.907-0.083-1.766-0.236-2.583H16.91z"/>
		<path fill="#40382B" d="M137.132,45.502v8.357c-1.146,0.573-2.628,0.857-4.447,0.857c-2.497,0-4.397-0.571-5.697-1.716
			c-1.301-1.145-1.95-2.912-1.95-5.306c0-0.79,0.061-1.521,0.182-2.193h-11.355c-0.146,0.839-0.22,1.726-0.22,2.661
			c0,8.845,6.139,13.266,18.416,13.266c3.537,0,6.712-0.273,9.521-0.819c2.809-0.547,5.123-1.313,6.945-2.302V45.502H137.132z"/>
		<path fill="#40382B" d="M179.27,45.502v8.357c-1.144,0.573-2.627,0.857-4.447,0.857c-2.497,0-4.397-0.571-5.697-1.716
			s-1.951-2.912-1.951-5.306c0-0.79,0.061-1.521,0.183-2.193h-11.355c-0.147,0.839-0.22,1.726-0.22,2.661
			c0,8.845,6.138,13.266,18.417,13.266c3.536,0,6.71-0.273,9.52-0.819c2.809-0.547,5.122-1.313,6.944-2.302V45.502H179.27z"/>
		<polygon fill="#40382B" points="97.334,45.502 85.014,45.502 78.686,60.648 108.338,60.648 108.338,52.767 94.449,52.767 		"/>
		<rect x="59.723" y="45.502" fill="#40382B" width="12.174" height="15.146"/>
	</g>
	<g>
		<path fill="#40382B" d="M15.135,28.189c0.214-0.489,0.522-0.934,0.929-1.329c0.86-0.832,2.042-1.25,3.551-1.25
			c1.3,0,2.509,0.223,3.628,0.664c1.118,0.443,2.041,0.95,2.771,1.522l2.965-6.945c-3.278-2.029-7.309-3.043-12.095-3.043
			c-4.163,0-7.543,1.248-10.144,3.746c-1.965,1.884-3.186,4.097-3.667,6.635H15.135z"/>
		<polygon fill="#40382B" points="92.248,28.189 104.212,28.189 108.026,18.589 80.091,18.589 80.091,26.47 92.965,26.47 		"/>
		<rect x="59.723" y="18.589" fill="#40382B" width="12.174" height="9.601"/>
		<path fill="#40382B" d="M124.102,26.079c1.819-0.469,3.692-0.703,5.618-0.703c2.391,0,4.225,0.418,5.501,1.249
			c0.589,0.386,1.036,0.91,1.354,1.564h11.451c-0.65-2.938-1.939-5.204-3.871-6.792c-2.913-2.392-6.972-3.589-12.173-3.589
			c-2.341,0-4.955,0.273-7.842,0.818c-2.888,0.547-5.554,1.34-7.999,2.38l2.653,6.945C120.511,27.172,122.279,26.549,124.102,26.079
			z"/>
		<path fill="#40382B" d="M166.239,26.079c1.819-0.469,3.692-0.703,5.618-0.703c2.393,0,4.226,0.418,5.501,1.249
			c0.59,0.386,1.037,0.91,1.354,1.564h11.452c-0.651-2.938-1.938-5.204-3.871-6.792c-2.914-2.392-6.972-3.589-12.173-3.589
			c-2.341,0-4.955,0.273-7.843,0.818c-2.887,0.547-5.553,1.34-7.998,2.38l2.653,6.945C162.649,27.172,164.417,26.549,166.239,26.079
			z"/>
		<rect x="37.875" y="8.78" fill="#40382B" width="12.173" height="19.409"/>
	</g>
	<polygon fill="#889696" points="91.342,30.356 85.919,43.334 98.195,43.334 103.352,30.356 	"/>
	<path fill="#889696" d="M137.107,30.356c0.015,0.207,0.025,0.418,0.025,0.64v1.95c-7.335,0.677-13.084,2.134-17.245,4.37
		c-2.673,1.438-4.482,3.444-5.438,6.018h11.476c0.482-0.951,1.161-1.71,2.04-2.272c1.95-1.248,5.006-2.079,9.168-2.497v4.77h11.394
		V33.181c0-0.992-0.051-1.934-0.147-2.824H137.107z"/>
	<path fill="#889696" d="M179.245,30.356c0.016,0.207,0.025,0.418,0.025,0.64v1.95c-7.335,0.677-13.084,2.134-17.244,4.37
		c-2.673,1.438-4.483,3.444-5.44,6.018h11.476c0.483-0.951,1.163-1.71,2.04-2.272c1.951-1.248,5.007-2.079,9.169-2.497v4.77h11.393
		V33.181c0-0.992-0.049-1.934-0.146-2.824H179.245z"/>
	<rect x="59.723" y="30.356" fill="#889696" width="12.174" height="12.978"/>
	<path fill="#889696" d="M20.357,35.795c-3.515-1.499-5.365-3.313-5.56-5.438H2.848c-0.004,0.135-0.009,0.269-0.009,0.405
		c0,2.446,0.675,4.656,2.028,6.633c1.353,1.978,3.434,3.525,6.244,4.644c1.145,0.455,2.118,0.888,2.927,1.296h15.259
		c-0.325-0.812-0.742-1.57-1.252-2.272C26.639,39.138,24.075,37.383,20.357,35.795z"/>
	<rect x="37.875" y="30.356" fill="#889696" width="12.173" height="12.978"/>
	<path fill="#889696" d="M173.949,12.344c-12.604-6.611-33.117-10.915-56.288-10.915c-19.478,0-37.077,3.042-49.678,7.939
		c-0.332-1.252-0.217-2.871,0.009-5.229c-1.548,3.89-8.269,8.737-8.269,8.737s8.754-0.7,12.208,0.15
		c-2.076-0.956-3.181-1.813-3.718-3.003C82,5.827,99.113,3.34,117.661,3.34C139.413,3.34,159.196,6.759,173.949,12.344z"/>
</g>
</svg>
