<?xml version="1.0" encoding="utf-8"?>
<!-- Generator: Adobe Illustrator 16.0.3, SVG Export Plug-In . SVG Version: 6.00 Build 0)  -->
<!DOCTYPE svg PUBLIC "-//W3C//DTD SVG 1.1//EN" "http://www.w3.org/Graphics/SVG/1.1/DTD/svg11.dtd">
<svg version="1.1" id="Ebene_1" xmlns="http://www.w3.org/2000/svg" xmlns:xlink="http://www.w3.org/1999/xlink" x="0px" y="0px"
	 width="1276.541px" height="503.119px" viewBox="0 0 1276.541 503.119" enable-background="new 0 0 1276.541 503.119"
	 xml:space="preserve">
<g>
	<g>
		<rect x="269.997" y="287.419" fill="#40382B" width="76.898" height="95.685"/>
		<path fill="#40382B" d="M137.56,287.419c3.164,4.844,4.768,10.926,4.768,18.293c0,8.544-3.043,15.521-9.116,20.948
			c-6.083,5.423-14.049,8.13-23.911,8.13c-8.552,0-17.333-1.554-26.373-4.682c-9.039-3.122-16.013-6.656-20.951-10.592
			L42.26,368.314c8.545,5.588,19.716,10.191,33.521,13.8c13.8,3.614,28.592,5.422,44.365,5.422c30.886,0,55.452-7.957,73.694-23.91
			c18.241-15.936,27.356-35.897,27.356-59.891c0-5.73-0.524-11.153-1.49-16.316H137.56L137.56,287.419z"/>
		<path fill="#40382B" d="M897.026,287.419v52.797c-7.235,3.619-16.602,5.416-28.096,5.416c-15.773,0-27.777-3.608-35.988-10.842
			c-8.217-7.229-12.319-18.396-12.319-33.516c0-4.99,0.383-9.611,1.146-13.855h-71.734c-0.926,5.298-1.389,10.9-1.389,16.812
			c0,55.873,38.779,83.801,116.338,83.801c22.347,0,42.402-1.727,60.144-5.176c17.744-3.455,32.364-8.297,43.875-14.541v-80.896
			L897.026,287.419L897.026,287.419z"/>
		<path fill="#40382B" d="M1163.22,287.419v52.797c-7.225,3.619-16.596,5.416-28.096,5.416c-15.773,0-27.779-3.608-35.99-10.842
			c-8.211-7.229-12.324-18.396-12.324-33.516c0-4.99,0.381-9.611,1.152-13.855h-71.732c-0.936,5.298-1.391,10.9-1.391,16.812
			c0,55.873,38.771,83.801,116.346,83.801c22.336,0,42.39-1.727,60.137-5.176c17.742-3.455,32.354-8.297,43.867-14.541v-80.896
			L1163.22,287.419L1163.22,287.419z"/>
		<polygon fill="#40382B" points="645.616,287.419 567.789,287.419 527.812,383.102 715.13,383.102 715.13,333.311 627.389,333.311 
					"/>
		<rect x="408.021" y="287.419" fill="#40382B" width="76.902" height="95.685"/>
	</g>
	<g>
		<path fill="#40382B" d="M126.35,178.052c1.351-3.092,3.301-5.897,5.869-8.396c5.433-5.256,12.896-7.896,22.435-7.896
			c8.213,0,15.851,1.404,22.918,4.192c7.064,2.802,12.896,6.002,17.502,9.618l18.734-43.875
			c-20.707-12.82-46.174-19.223-76.408-19.223c-26.3,0-47.654,7.883-64.079,23.665c-12.413,11.897-20.127,25.879-23.166,41.913
			L126.35,178.052L126.35,178.052z"/>
		<polygon fill="#40382B" points="613.485,178.052 689.065,178.052 713.157,117.404 536.688,117.404 536.688,167.188 
			618.017,167.188 		"/>
		<rect x="408.021" y="117.404" fill="#40382B" width="76.902" height="60.648"/>
		<path fill="#40382B" d="M814.712,164.72c11.492-2.96,23.324-4.441,35.492-4.441c15.104,0,26.688,2.641,34.75,7.891
			c3.719,2.438,6.547,5.75,8.551,9.885h72.34c-4.107-18.563-12.25-32.875-24.455-42.906c-18.402-15.108-44.041-22.671-76.898-22.671
			c-14.784,0-31.301,1.727-49.536,5.169c-18.24,3.455-35.084,8.464-50.529,15.034l16.76,43.875
			C792.028,171.624,803.194,167.688,814.712,164.72z"/>
		<path fill="#40382B" d="M1080.897,164.72c11.492-2.96,23.324-4.441,35.492-4.441c15.113,0,26.691,2.641,34.75,7.891
			c3.725,2.438,6.551,5.75,8.551,9.885h72.344c-4.114-18.563-12.243-32.875-24.452-42.906
			c-18.41-15.108-44.043-22.671-76.896-22.671c-14.787,0-31.305,1.727-49.547,5.169c-18.234,3.455-35.076,8.464-50.522,15.034
			l16.762,43.875C1058.22,171.624,1069.392,167.688,1080.897,164.72z"/>
		<rect x="269.997" y="55.441" fill="#40382B" stroke="#40382B" stroke-miterlimit="10" width="76.898" height="122.611"/>
	</g>
	<polygon fill="#889696" points="607.764,191.741 573.506,273.723 651.058,273.723 683.632,191.741 	"/>
	<path fill="#889696" d="M896.868,191.741c0.09,1.308,0.157,2.64,0.157,4.041v12.32c-46.336,4.273-82.653,13.479-108.94,27.604
		c-16.883,9.082-28.313,21.759-34.354,38.017h72.494c3.047-6.012,7.336-10.804,12.887-14.355
		c12.32-7.885,31.623-13.134,57.917-15.773v30.13h71.975v-64.143c0-6.267-0.318-12.214-0.93-17.841H896.868z"/>
	<path fill="#889696" d="M1163.058,191.741c0.098,1.308,0.162,2.64,0.162,4.041v12.32c-46.338,4.273-82.656,13.479-108.938,27.604
		c-16.883,9.082-28.321,21.759-34.366,38.017h72.491c3.058-6.012,7.351-10.804,12.89-14.355
		c12.326-7.885,31.631-13.134,57.924-15.773v30.13h71.967v-64.143c0-6.267-0.309-12.214-0.92-17.841H1163.058z"/>
	<rect x="408.021" y="191.741" fill="#889696" width="76.902" height="81.982"/>
	<path fill="#889696" d="M159.338,226.097c-22.205-9.471-33.895-20.927-35.122-34.356H48.729c-0.024,0.854-0.055,1.697-0.055,2.563
		c0,15.452,4.263,29.412,12.81,41.899c8.545,12.492,21.691,22.271,39.442,29.334c7.229,2.874,13.381,5.607,18.487,8.188h96.394
		c-2.053-5.127-4.685-9.92-7.908-14.355C199.022,247.215,182.825,236.128,159.338,226.097z"/>
	<rect x="269.997" y="191.741" fill="#889696" width="76.898" height="81.982"/>
	<path fill="#889696" d="M1129.601,77.953C1049.983,36.188,920.396,9,774.021,9c-123.043,0-234.22,19.216-313.824,50.155
		c-2.101-7.909-1.375-18.137,0.058-33.036c-9.776,24.572-52.232,55.195-52.232,55.195s55.299-4.423,77.115,0.951
		c-13.112-6.041-20.096-11.451-23.487-18.973c87.099-26.508,195.204-42.221,312.374-42.221
		C911.433,21.073,1036.405,42.672,1129.601,77.953z"/>
</g>
<g>
	<path fill="#40382B" d="M52.769,474.645c-2.649,0.951-7.88,2.514-14.062,2.514c-6.93,0-12.636-1.767-17.119-6.046
		c-3.94-3.805-6.386-9.918-6.386-17.051c0.068-13.654,9.442-23.641,24.795-23.641c5.299,0,9.442,1.155,11.413,2.105l-1.427,4.823
		c-2.445-1.087-5.503-1.97-10.122-1.97c-11.141,0-18.409,6.929-18.409,18.409c0,11.617,6.997,18.478,17.662,18.478
		c3.872,0,6.521-0.543,7.88-1.223V457.39h-9.307v-4.755h15.081V474.645z"/>
	<path fill="#40382B" d="M61.599,454.062c0-3.872-0.068-7.201-0.271-10.258h5.23l0.204,6.453h0.271c1.494-4.415,5.095-7.2,9.103-7.2
		c0.68,0,1.155,0.067,1.698,0.203v5.639c-0.611-0.136-1.223-0.204-2.038-0.204c-4.212,0-7.2,3.193-8.016,7.677
		c-0.136,0.815-0.271,1.766-0.271,2.785v17.526h-5.91V454.062z"/>
	<path fill="#40382B" d="M101.678,476.683l-0.476-4.144h-0.204c-1.834,2.581-5.366,4.891-10.054,4.891
		c-6.657,0-10.054-4.688-10.054-9.442c0-7.948,7.064-12.296,19.769-12.228v-0.68c0-2.717-0.748-7.608-7.473-7.608
		c-3.058,0-6.25,0.951-8.56,2.445l-1.358-3.939c2.717-1.767,6.657-2.921,10.801-2.921c10.054,0,12.5,6.86,12.5,13.45v12.296
		c0,2.853,0.136,5.638,0.543,7.88H101.678z M100.795,459.904c-6.521-0.136-13.927,1.019-13.927,7.404
		c0,3.872,2.582,5.707,5.639,5.707c4.28,0,6.997-2.718,7.948-5.503c0.204-0.611,0.34-1.291,0.34-1.902V459.904z"/>
	<path fill="#40382B" d="M116.214,454.538c0-4.212-0.136-7.608-0.271-10.733h5.366l0.272,5.638h0.136
		c2.445-4.008,6.317-6.385,11.685-6.385c7.947,0,13.926,6.725,13.926,16.711c0,11.82-7.201,17.662-14.945,17.662
		c-4.348,0-8.151-1.902-10.122-5.163h-0.136v17.866h-5.91V454.538z M122.124,463.301c0,0.884,0.136,1.698,0.271,2.445
		c1.087,4.145,4.688,6.997,8.968,6.997c6.317,0,9.985-5.162,9.985-12.703c0-6.589-3.464-12.228-9.782-12.228
		c-4.075,0-7.88,2.921-9.034,7.404c-0.204,0.747-0.408,1.631-0.408,2.446V463.301z"/>
	<path fill="#40382B" d="M154.865,428.452h5.979v20.516h0.136c0.951-1.699,2.445-3.193,4.279-4.212
		c1.767-1.02,3.872-1.698,6.114-1.698c4.416,0,11.48,2.717,11.48,14.062v19.564h-5.978v-18.885c0-5.299-1.971-9.782-7.608-9.782
		c-3.873,0-6.93,2.717-8.017,5.978c-0.34,0.815-0.407,1.698-0.407,2.854v19.836h-5.979V428.452z"/>
	<path fill="#40382B" d="M206.425,456.1v4.415h-16.779V456.1H206.425z"/>
	<path fill="#40382B" d="M213.148,476.683c0.136-2.242,0.271-5.57,0.271-8.491v-39.74h5.91v20.651h0.136
		c2.106-3.669,5.91-6.046,11.209-6.046c8.152,0,13.926,6.793,13.858,16.779c0,11.752-7.404,17.594-14.741,17.594
		c-4.756,0-8.56-1.834-11.005-6.182h-0.204l-0.271,5.435H213.148z M219.33,463.505c0,0.747,0.136,1.494,0.271,2.174
		c1.155,4.144,4.62,6.997,8.968,6.997c6.249,0,9.985-5.095,9.985-12.636c0-6.589-3.396-12.228-9.782-12.228
		c-4.075,0-7.88,2.785-9.103,7.337c-0.136,0.679-0.34,1.494-0.34,2.445V463.505z"/>
	<path fill="#40382B" d="M270.277,476.683l-0.476-4.144h-0.204c-1.834,2.581-5.367,4.891-10.054,4.891
		c-6.657,0-10.055-4.688-10.055-9.442c0-7.948,7.065-12.296,19.769-12.228v-0.68c0-2.717-0.747-7.608-7.473-7.608
		c-3.057,0-6.25,0.951-8.56,2.445l-1.358-3.939c2.718-1.767,6.657-2.921,10.802-2.921c10.054,0,12.499,6.86,12.499,13.45v12.296
		c0,2.853,0.136,5.638,0.544,7.88H270.277z M269.394,459.904c-6.521-0.136-13.926,1.019-13.926,7.404
		c0,3.872,2.581,5.707,5.639,5.707c4.279,0,6.997-2.718,7.947-5.503c0.204-0.611,0.34-1.291,0.34-1.902V459.904z"/>
	<path fill="#40382B" d="M283.998,470.569c1.767,1.155,4.892,2.378,7.88,2.378c4.348,0,6.386-2.174,6.386-4.891
		c0-2.854-1.698-4.416-6.113-6.046c-5.91-2.106-8.695-5.367-8.695-9.308c0-5.298,4.279-9.646,11.344-9.646
		c3.329,0,6.25,0.95,8.084,2.037l-1.494,4.348c-1.291-0.814-3.668-1.901-6.726-1.901c-3.532,0-5.502,2.038-5.502,4.483
		c0,2.717,1.97,3.939,6.25,5.57c5.706,2.174,8.627,5.027,8.627,9.918c0,5.774-4.483,9.851-12.296,9.851
		c-3.601,0-6.929-0.884-9.238-2.242L283.998,470.569z"/>
	<path fill="#40382B" d="M315.042,461.331c0.136,8.084,5.299,11.412,11.276,11.412c4.28,0,6.861-0.747,9.104-1.698l1.019,4.28
		c-2.105,0.951-5.706,2.038-10.938,2.038c-10.121,0-16.167-6.657-16.167-16.576c0-9.918,5.842-17.729,15.42-17.729
		c10.733,0,13.587,9.442,13.587,15.488c0,1.223-0.136,2.174-0.204,2.785H315.042z M332.568,457.051
		c0.068-3.804-1.563-9.714-8.288-9.714c-6.046,0-8.695,5.57-9.171,9.714H332.568z"/>
	<path fill="#40382B" d="M374.141,428.452v39.74c0,2.921,0.068,6.249,0.272,8.491h-5.367l-0.271-5.706h-0.136
		c-1.834,3.668-5.843,6.453-11.209,6.453c-7.948,0-14.062-6.725-14.062-16.711c-0.068-10.938,6.725-17.662,14.741-17.662
		c5.026,0,8.423,2.377,9.918,5.026h0.136v-19.632H374.141z M368.163,457.187c0-0.748-0.068-1.767-0.271-2.514
		c-0.884-3.805-4.145-6.93-8.628-6.93c-6.182,0-9.85,5.435-9.85,12.704c0,6.657,3.261,12.159,9.714,12.159
		c4.008,0,7.677-2.649,8.764-7.133c0.203-0.815,0.271-1.63,0.271-2.581V457.187z"/>
	<path fill="#40382B" d="M406.066,462.282l-4.755,14.401h-6.114l15.557-45.786h7.133l15.625,45.786h-6.318l-4.891-14.401H406.066z
		 M421.08,457.663l-4.484-13.18c-1.019-2.988-1.698-5.706-2.377-8.355h-0.136c-0.68,2.718-1.427,5.503-2.31,8.288l-4.484,13.247
		H421.08z"/>
	<path fill="#40382B" d="M439.828,452.703c0-3.396-0.067-6.182-0.271-8.898h5.299l0.34,5.435h0.136
		c1.63-3.125,5.435-6.182,10.869-6.182c4.552,0,11.616,2.717,11.616,13.993v19.633h-5.978V457.73c0-5.299-1.971-9.714-7.608-9.714
		c-3.94,0-6.997,2.785-8.017,6.113c-0.271,0.747-0.407,1.767-0.407,2.785v19.769h-5.979V452.703z"/>
	<path fill="#40382B" d="M495.735,476.683l-0.476-4.144h-0.204c-1.834,2.581-5.367,4.891-10.054,4.891
		c-6.657,0-10.055-4.688-10.055-9.442c0-7.948,7.065-12.296,19.769-12.228v-0.68c0-2.717-0.747-7.608-7.473-7.608
		c-3.057,0-6.25,0.951-8.56,2.445l-1.358-3.939c2.718-1.767,6.657-2.921,10.802-2.921c10.054,0,12.499,6.86,12.499,13.45v12.296
		c0,2.853,0.136,5.638,0.544,7.88H495.735z M494.852,459.904c-6.521-0.136-13.926,1.019-13.926,7.404
		c0,3.872,2.581,5.707,5.639,5.707c4.279,0,6.997-2.718,7.947-5.503c0.204-0.611,0.34-1.291,0.34-1.902V459.904z"/>
	<path fill="#40382B" d="M510.271,428.452h5.978v48.231h-5.978V428.452z"/>
	<path fill="#40382B" d="M528.476,443.804l7.201,19.429c0.747,2.174,1.563,4.755,2.105,6.725h0.136
		c0.612-1.97,1.291-4.483,2.106-6.861l6.521-19.292h6.317l-8.967,23.437c-4.279,11.276-7.201,17.051-11.276,20.583
		c-2.922,2.582-5.843,3.601-7.337,3.872l-1.495-5.026c1.495-0.476,3.465-1.427,5.231-2.921c1.63-1.291,3.668-3.601,5.026-6.658
		c0.272-0.611,0.476-1.087,0.476-1.426c0-0.34-0.136-0.815-0.407-1.563l-12.16-30.298H528.476z"/>
	<path fill="#40382B" d="M557.074,470.569c1.767,1.155,4.892,2.378,7.88,2.378c4.348,0,6.386-2.174,6.386-4.891
		c0-2.854-1.698-4.416-6.113-6.046c-5.91-2.106-8.695-5.367-8.695-9.308c0-5.298,4.279-9.646,11.344-9.646
		c3.329,0,6.25,0.95,8.084,2.037l-1.494,4.348c-1.291-0.814-3.668-1.901-6.726-1.901c-3.532,0-5.502,2.038-5.502,4.483
		c0,2.717,1.97,3.939,6.25,5.57c5.706,2.174,8.627,5.027,8.627,9.918c0,5.774-4.483,9.851-12.296,9.851
		c-3.601,0-6.929-0.884-9.238-2.242L557.074,470.569z"/>
	<path fill="#40382B" d="M591.446,434.565c0.068,2.038-1.426,3.669-3.804,3.669c-2.106,0-3.601-1.631-3.601-3.669
		c0-2.105,1.563-3.736,3.736-3.736C590.021,430.829,591.446,432.46,591.446,434.565z M584.789,476.683v-32.879h5.979v32.879H584.789
		z"/>
	<path fill="#40382B" d="M599.87,470.569c1.766,1.155,4.891,2.378,7.88,2.378c4.348,0,6.386-2.174,6.386-4.891
		c0-2.854-1.698-4.416-6.114-6.046c-5.91-2.106-8.695-5.367-8.695-9.308c0-5.298,4.279-9.646,11.345-9.646
		c3.329,0,6.25,0.95,8.084,2.037l-1.494,4.348c-1.291-0.814-3.669-1.901-6.726-1.901c-3.532,0-5.503,2.038-5.503,4.483
		c0,2.717,1.971,3.939,6.25,5.57c5.706,2.174,8.627,5.027,8.627,9.918c0,5.774-4.483,9.851-12.295,9.851
		c-3.601,0-6.93-0.884-9.239-2.242L599.87,470.569z"/>
	<path fill="#40382B" d="M671.739,459.972c0,12.159-8.424,17.458-16.372,17.458c-8.898,0-15.76-6.521-15.76-16.915
		c0-11.005,7.2-17.458,16.304-17.458C665.354,443.057,671.739,449.918,671.739,459.972z M645.653,460.311
		c0,7.201,4.144,12.636,9.986,12.636c5.706,0,9.985-5.366,9.985-12.771c0-5.57-2.785-12.635-9.85-12.635
		C648.71,447.541,645.653,454.062,645.653,460.311z"/>
	<path fill="#40382B" d="M679.89,476.683v-28.328h-4.619v-4.551h4.619v-1.563c0-4.619,1.02-8.831,3.805-11.48
		c2.241-2.174,5.23-3.058,8.016-3.058c2.105,0,3.94,0.476,5.095,0.951l-0.815,4.62c-0.883-0.408-2.105-0.748-3.804-0.748
		c-5.095,0-6.386,4.483-6.386,9.511v1.767h7.948v4.551H685.8v28.328H679.89z"/>
	<path fill="#40382B" d="M712.902,469.482c2.649,1.631,6.521,2.989,10.598,2.989c6.046,0,9.578-3.192,9.578-7.813
		c0-4.279-2.445-6.725-8.627-9.103c-7.473-2.649-12.093-6.521-12.093-12.975c0-7.133,5.91-12.432,14.81-12.432
		c4.688,0,8.084,1.087,10.122,2.241l-1.631,4.823c-1.494-0.815-4.551-2.174-8.695-2.174c-6.249,0-8.627,3.736-8.627,6.861
		c0,4.279,2.785,6.386,9.103,8.831c7.745,2.989,11.685,6.726,11.685,13.451c0,7.064-5.23,13.179-16.032,13.179
		c-4.415,0-9.238-1.291-11.684-2.922L712.902,469.482z"/>
	<path fill="#40382B" d="M777.164,459.972c0,12.159-8.423,17.458-16.371,17.458c-8.899,0-15.761-6.521-15.761-16.915
		c0-11.005,7.201-17.458,16.304-17.458C770.779,443.057,777.164,449.918,777.164,459.972z M751.078,460.311
		c0,7.201,4.145,12.636,9.986,12.636c5.706,0,9.986-5.366,9.986-12.771c0-5.57-2.785-12.635-9.851-12.635
		C754.136,447.541,751.078,454.062,751.078,460.311z"/>
	<path fill="#40382B" d="M785.315,476.683v-28.328h-4.619v-4.551h4.619v-1.563c0-4.619,1.02-8.831,3.805-11.48
		c2.241-2.174,5.23-3.058,8.016-3.058c2.105,0,3.94,0.476,5.095,0.951l-0.815,4.62c-0.883-0.408-2.105-0.748-3.804-0.748
		c-5.095,0-6.386,4.483-6.386,9.511v1.767h7.948v4.551h-7.948v28.328H785.315z"/>
	<path fill="#40382B" d="M812.486,434.362v9.442h8.56v4.551h-8.56v17.73c0,4.076,1.154,6.386,4.483,6.386
		c1.563,0,2.717-0.204,3.465-0.407l0.271,4.483c-1.155,0.476-2.989,0.815-5.299,0.815c-2.785,0-5.027-0.884-6.454-2.514
		c-1.698-1.767-2.31-4.688-2.31-8.56v-17.935h-5.095v-4.551h5.095v-7.88L812.486,434.362z"/>
	<path fill="#40382B" d="M830.758,443.804l4.348,16.711c0.951,3.669,1.834,7.065,2.445,10.462h0.204
		c0.747-3.329,1.834-6.861,2.921-10.394l5.366-16.779h5.027l5.095,16.439c1.223,3.94,2.174,7.404,2.921,10.733h0.204
		c0.544-3.329,1.427-6.793,2.514-10.666l4.688-16.507h5.91l-10.598,32.879h-5.435l-5.027-15.692
		c-1.154-3.668-2.105-6.929-2.921-10.801h-0.136c-0.815,3.939-1.834,7.336-2.989,10.869l-5.299,15.624h-5.435l-9.918-32.879H830.758
		z"/>
	<path fill="#40382B" d="M896.311,476.683l-0.476-4.144h-0.204c-1.834,2.581-5.366,4.891-10.054,4.891
		c-6.657,0-10.054-4.688-10.054-9.442c0-7.948,7.064-12.296,19.768-12.228v-0.68c0-2.717-0.747-7.608-7.472-7.608
		c-3.058,0-6.25,0.951-8.56,2.445l-1.359-3.939c2.718-1.767,6.657-2.921,10.802-2.921c10.054,0,12.499,6.86,12.499,13.45v12.296
		c0,2.853,0.136,5.638,0.544,7.88H896.311z M895.427,459.904c-6.521-0.136-13.926,1.019-13.926,7.404
		c0,3.872,2.582,5.707,5.639,5.707c4.279,0,6.997-2.718,7.948-5.503c0.203-0.611,0.339-1.291,0.339-1.902V459.904z"/>
	<path fill="#40382B" d="M910.847,454.062c0-3.872-0.068-7.201-0.271-10.258h5.23l0.204,6.453h0.271
		c1.494-4.415,5.095-7.2,9.103-7.2c0.68,0,1.155,0.067,1.699,0.203v5.639c-0.612-0.136-1.224-0.204-2.038-0.204
		c-4.212,0-7.201,3.193-8.017,7.677c-0.136,0.815-0.271,1.766-0.271,2.785v17.526h-5.91V454.062z"/>
	<path fill="#40382B" d="M935.71,461.331c0.136,8.084,5.299,11.412,11.276,11.412c4.279,0,6.861-0.747,9.103-1.698l1.02,4.28
		c-2.106,0.951-5.706,2.038-10.938,2.038c-10.122,0-16.168-6.657-16.168-16.576c0-9.918,5.843-17.729,15.421-17.729
		c10.733,0,13.587,9.442,13.587,15.488c0,1.223-0.137,2.174-0.204,2.785H935.71z M953.236,457.051
		c0.067-3.804-1.563-9.714-8.288-9.714c-6.046,0-8.695,5.57-9.171,9.714H953.236z"/>
	<path fill="#40382B" d="M980.202,469.482c2.649,1.631,6.521,2.989,10.598,2.989c6.046,0,9.578-3.192,9.578-7.813
		c0-4.279-2.445-6.725-8.627-9.103c-7.473-2.649-12.092-6.521-12.092-12.975c0-7.133,5.909-12.432,14.809-12.432
		c4.688,0,8.084,1.087,10.122,2.241l-1.631,4.823c-1.494-0.815-4.551-2.174-8.695-2.174c-6.249,0-8.627,3.736-8.627,6.861
		c0,4.279,2.785,6.386,9.103,8.831c7.744,2.989,11.685,6.726,11.685,13.451c0,7.064-5.23,13.179-16.032,13.179
		c-4.415,0-9.238-1.291-11.684-2.922L980.202,469.482z"/>
	<path fill="#40382B" d="M1021.301,434.362v9.442h8.56v4.551h-8.56v17.73c0,4.076,1.154,6.386,4.483,6.386
		c1.563,0,2.717-0.204,3.465-0.407l0.271,4.483c-1.155,0.476-2.989,0.815-5.299,0.815c-2.785,0-5.027-0.884-6.454-2.514
		c-1.698-1.767-2.31-4.688-2.31-8.56v-17.935h-5.095v-4.551h5.095v-7.88L1021.301,434.362z"/>
	<path fill="#40382B" d="M1036.584,454.062c0-3.872-0.067-7.201-0.271-10.258h5.23l0.204,6.453h0.271
		c1.494-4.415,5.095-7.2,9.103-7.2c0.68,0,1.155,0.067,1.698,0.203v5.639c-0.611-0.136-1.223-0.204-2.037-0.204
		c-4.212,0-7.201,3.193-8.017,7.677c-0.136,0.815-0.271,1.766-0.271,2.785v17.526h-5.91V454.062z"/>
	<path fill="#40382B" d="M1086.31,467.717c0,3.396,0.067,6.386,0.271,8.967h-5.299l-0.34-5.366h-0.136
		c-1.563,2.648-5.026,6.113-10.869,6.113c-5.162,0-11.345-2.853-11.345-14.401v-19.225h5.979v18.206
		c0,6.249,1.902,10.461,7.337,10.461c4.008,0,6.793-2.785,7.88-5.435c0.34-0.883,0.543-1.97,0.543-3.057v-20.176h5.979V467.717z"/>
	<path fill="#40382B" d="M1119.662,475.461c-1.563,0.815-5.026,1.902-9.442,1.902c-9.918,0-16.372-6.726-16.372-16.779
		c0-10.122,6.93-17.459,17.663-17.459c3.532,0,6.657,0.883,8.287,1.698l-1.358,4.619c-1.427-0.814-3.668-1.563-6.929-1.563
		c-7.541,0-11.617,5.571-11.617,12.432c0,7.608,4.892,12.296,11.413,12.296c3.396,0,5.639-0.883,7.337-1.63L1119.662,475.461z"/>
	<path fill="#40382B" d="M1134.742,434.362v9.442h8.56v4.551h-8.56v17.73c0,4.076,1.154,6.386,4.483,6.386
		c1.563,0,2.717-0.204,3.465-0.407l0.271,4.483c-1.155,0.476-2.989,0.815-5.299,0.815c-2.785,0-5.027-0.884-6.454-2.514
		c-1.698-1.767-2.31-4.688-2.31-8.56v-17.935h-5.095v-4.551h5.095v-7.88L1134.742,434.362z"/>
	<path fill="#40382B" d="M1177.538,467.717c0,3.396,0.067,6.386,0.271,8.967h-5.299l-0.34-5.366h-0.136
		c-1.563,2.648-5.026,6.113-10.869,6.113c-5.162,0-11.345-2.853-11.345-14.401v-19.225h5.979v18.206
		c0,6.249,1.902,10.461,7.337,10.461c4.008,0,6.793-2.785,7.88-5.435c0.34-0.883,0.543-1.97,0.543-3.057v-20.176h5.979V467.717z"/>
	<path fill="#40382B" d="M1187.454,454.062c0-3.872-0.068-7.201-0.271-10.258h5.23l0.204,6.453h0.271
		c1.494-4.415,5.095-7.2,9.103-7.2c0.68,0,1.155,0.067,1.699,0.203v5.639c-0.612-0.136-1.224-0.204-2.038-0.204
		c-4.212,0-7.201,3.193-8.017,7.677c-0.136,0.815-0.271,1.766-0.271,2.785v17.526h-5.91V454.062z"/>
	<path fill="#40382B" d="M1212.317,461.331c0.136,8.084,5.299,11.412,11.276,11.412c4.279,0,6.861-0.747,9.103-1.698l1.02,4.28
		c-2.106,0.951-5.706,2.038-10.938,2.038c-10.122,0-16.168-6.657-16.168-16.576c0-9.918,5.843-17.729,15.421-17.729
		c10.733,0,13.587,9.442,13.587,15.488c0,1.223-0.137,2.174-0.204,2.785H1212.317z M1229.844,457.051
		c0.067-3.804-1.563-9.714-8.288-9.714c-6.046,0-8.695,5.57-9.171,9.714H1229.844z"/>
	<path fill="#40382B" d="M1242.205,470.569c1.767,1.155,4.892,2.378,7.881,2.378c4.348,0,6.385-2.174,6.385-4.891
		c0-2.854-1.698-4.416-6.113-6.046c-5.91-2.106-8.695-5.367-8.695-9.308c0-5.298,4.279-9.646,11.345-9.646
		c3.328,0,6.25,0.95,8.084,2.037l-1.495,4.348c-1.29-0.814-3.668-1.901-6.725-1.901c-3.533,0-5.503,2.038-5.503,4.483
		c0,2.717,1.97,3.939,6.25,5.57c5.706,2.174,8.627,5.027,8.627,9.918c0,5.774-4.483,9.851-12.296,9.851
		c-3.6,0-6.929-0.884-9.238-2.242L1242.205,470.569z"/>
</g>
</svg>
