<?xml version="1.0" encoding="utf-8"?>
<!-- Generator: Adobe Illustrator 16.0.3, SVG Export Plug-In . SVG Version: 6.00 Build 0)  -->
<!DOCTYPE svg PUBLIC "-//W3C//DTD SVG 1.1//EN" "http://www.w3.org/Graphics/SVG/1.1/DTD/svg11.dtd">
<svg version="1.1" id="Ebene_1" xmlns="http://www.w3.org/2000/svg" xmlns:xlink="http://www.w3.org/1999/xlink" x="0px" y="0px"
	 width="1276.541px" height="503.119px" viewBox="0 0 1276.541 503.119" enable-background="new 0 0 1276.541 503.119"
	 xml:space="preserve">
<g>
	<g>
		<g>
			<rect x="269.545" y="278.419" fill="#40382B" width="76.898" height="95.683"/>
			<path fill="#40382B" d="M137.107,278.419c3.164,4.842,4.768,10.924,4.768,18.292c0,8.543-3.043,15.521-9.117,20.949
				c-6.083,5.423-14.048,8.13-23.911,8.13c-8.551,0-17.333-1.554-26.373-4.682c-9.039-3.122-16.012-6.656-20.951-10.592
				l-19.716,48.798c8.545,5.588,19.716,10.191,33.522,13.8c13.8,3.614,28.592,5.422,44.365,5.422
				c30.886,0,55.452-7.957,73.694-23.91c18.242-15.936,27.357-35.899,27.357-59.891c0-5.73-0.525-11.153-1.49-16.316H137.107z"/>
			<path fill="#40382B" d="M896.574,278.419v52.795c-7.236,3.621-16.602,5.416-28.096,5.416c-15.773,0-27.777-3.608-35.988-10.84
				c-8.217-7.229-12.32-18.396-12.32-33.516c0-4.99,0.383-9.611,1.146-13.855h-71.734c-0.926,5.298-1.389,10.9-1.389,16.81
				c0,55.873,38.779,83.801,116.338,83.801c22.346,0,42.402-1.727,60.143-5.176c17.744-3.455,32.365-8.297,43.875-14.541v-80.895
				H896.574z"/>
			<path fill="#40382B" d="M1162.768,278.419v52.795c-7.225,3.621-16.596,5.416-28.096,5.416c-15.775,0-27.779-3.608-35.99-10.84
				c-8.211-7.229-12.326-18.396-12.326-33.516c0-4.99,0.381-9.611,1.154-13.855h-71.734c-0.934,5.298-1.389,10.9-1.389,16.81
				c0,55.873,38.771,83.801,116.344,83.801c22.336,0,42.389-1.727,60.137-5.176c17.742-3.455,32.355-8.297,43.867-14.541v-80.895
				H1162.768z"/>
			<polygon fill="#40382B" points="645.164,278.419 567.336,278.419 527.359,374.102 714.678,374.102 714.678,324.311 
				626.936,324.311 			"/>
			<rect x="407.568" y="278.419" fill="#40382B" width="76.902" height="95.683"/>
		</g>
		<g>
			<path fill="#40382B" d="M125.897,169.052c1.351-3.09,3.301-5.897,5.869-8.396c5.433-5.256,12.897-7.896,22.435-7.896
				c8.213,0,15.85,1.406,22.918,4.194c7.064,2.802,12.895,6.002,17.502,9.618l18.734-43.875
				c-20.707-12.82-46.174-19.223-76.408-19.223c-26.3,0-47.654,7.883-64.079,23.665c-12.413,11.899-20.127,25.879-23.166,41.913
				H125.897z"/>
			<polygon fill="#40382B" points="613.033,169.052 688.613,169.052 712.705,108.404 536.236,108.404 536.236,158.188 
				617.564,158.188 			"/>
			<rect x="407.568" y="108.404" fill="#40382B" width="76.902" height="60.648"/>
			<path fill="#40382B" d="M814.26,155.72c11.492-2.96,23.324-4.441,35.492-4.441c15.102,0,26.686,2.641,34.75,7.891
				c3.719,2.437,6.547,5.75,8.551,9.883h72.338c-4.107-18.563-12.25-32.875-24.455-42.906
				c-18.402-15.108-44.041-22.671-76.898-22.671c-14.785,0-31.301,1.727-49.537,5.169c-18.24,3.455-35.084,8.464-50.529,15.034
				l16.76,43.875C791.576,162.624,802.742,158.688,814.26,155.72z"/>
			<path fill="#40382B" d="M1080.445,155.72c11.492-2.96,23.324-4.441,35.492-4.441c15.113,0,26.691,2.641,34.75,7.891
				c3.725,2.437,6.551,5.75,8.551,9.883h72.344c-4.115-18.563-12.244-32.875-24.453-42.906
				c-18.41-15.108-44.043-22.671-76.898-22.671c-14.787,0-31.303,1.727-49.545,5.169c-18.236,3.455-35.078,8.464-50.525,15.034
				l16.762,43.875C1057.768,162.624,1068.939,158.688,1080.445,155.72z"/>
			<rect x="269.545" y="46.441" fill="#40382B" stroke="#40382B" stroke-miterlimit="10" width="76.898" height="122.611"/>
		</g>
		<polygon fill="#889696" points="607.311,182.741 573.053,264.723 650.604,264.723 683.18,182.741 		"/>
		<path fill="#889696" d="M896.416,182.741c0.09,1.308,0.158,2.64,0.158,4.041v12.32c-46.336,4.275-82.654,13.479-108.941,27.606
			c-16.883,9.082-28.314,21.759-34.355,38.015h72.494c3.047-6.01,7.336-10.802,12.887-14.355
			c12.32-7.885,31.623-13.134,57.916-15.775v30.13h71.975v-64.141c0-6.267-0.318-12.214-0.93-17.841H896.416z"/>
		<path fill="#889696" d="M1162.605,182.741c0.098,1.308,0.162,2.64,0.162,4.041v12.32c-46.338,4.275-82.656,13.479-108.938,27.606
			c-16.883,9.082-28.322,21.759-34.367,38.015h72.492c3.057-6.01,7.35-10.802,12.889-14.355
			c12.326-7.885,31.631-13.134,57.924-15.775v30.13h71.967v-64.141c0-6.267-0.309-12.214-0.92-17.841H1162.605z"/>
		<rect x="407.568" y="182.741" fill="#889696" width="76.902" height="81.982"/>
		<path fill="#889696" d="M158.885,217.097c-22.205-9.469-33.894-20.925-35.122-34.356H48.277c-0.024,0.852-0.055,1.697-0.055,2.561
			c0,15.454,4.263,29.414,12.81,41.901c8.545,12.492,21.691,22.27,39.442,29.334c7.23,2.874,13.381,5.607,18.488,8.186h96.393
			c-2.053-5.127-4.684-9.92-7.908-14.355C198.57,238.215,182.373,227.128,158.885,217.097z"/>
		<rect x="269.545" y="182.741" fill="#889696" width="76.898" height="81.982"/>
		<path fill="#889696" d="M1129.148,68.953C1049.531,27.188,919.943,0,773.568,0C650.525,0,539.348,19.216,459.744,50.155
			c-2.1-7.909-1.375-18.137,0.057-33.036c-9.777,24.572-52.232,55.195-52.232,55.195s55.299-4.423,77.115,0.951
			c-13.113-6.041-20.096-11.451-23.488-18.971c87.098-26.508,195.203-42.221,312.373-42.221
			C910.979,12.073,1035.953,33.672,1129.148,68.953z"/>
	</g>
	<g>
		<path fill="#40382B" d="M19.819,460.817l13.489-25.284h6.365L22.793,466.49v19.61h-5.95v-19.335L0,435.533h6.433L19.819,460.817z"
			/>
		<path fill="#40382B" d="M78.48,467.111c0,6.181-1.556,11.006-4.669,14.475c-3.112,3.472-7.414,5.206-12.901,5.206
			c-3.389,0-6.398-0.794-9.027-2.386c-2.628-1.592-4.659-3.873-6.087-6.85c-1.431-2.975-2.145-6.455-2.145-10.445
			c0-6.179,1.545-10.993,4.636-14.44c3.089-3.447,7.378-5.171,12.867-5.171c5.302,0,9.517,1.765,12.641,5.293
			C76.918,456.32,78.48,461.095,78.48,467.111z M49.6,467.111c0,4.843,0.968,8.533,2.905,11.068
			c1.937,2.537,4.785,3.806,8.543,3.806c3.758,0,6.611-1.263,8.561-3.789c1.948-2.523,2.922-6.218,2.922-11.085
			c0-4.818-0.974-8.479-2.922-10.981c-1.95-2.501-4.826-3.753-8.63-3.753c-3.759,0-6.595,1.233-8.509,3.702
			C50.556,458.547,49.6,462.224,49.6,467.111z"/>
		<path fill="#40382B" d="M93.94,448.192v24.593c0,3.089,0.704,5.395,2.11,6.917s3.608,2.283,6.606,2.283
			c3.965,0,6.866-1.085,8.698-3.252c1.836-2.167,2.75-5.707,2.75-10.619v-19.922h5.741v37.908h-4.739l-0.827-5.084h-0.313
			c-1.175,1.867-2.808,3.298-4.896,4.288c-2.085,0.991-4.468,1.487-7.143,1.487c-4.61,0-8.063-1.095-10.357-3.285
			c-2.295-2.19-3.443-5.696-3.443-10.515v-24.8H93.94z"/>
		<path fill="#40382B" d="M149.317,447.5c1.681,0,3.191,0.139,4.531,0.415l-0.797,5.328c-1.567-0.348-2.951-0.52-4.149-0.52
			c-3.066,0-5.691,1.245-7.87,3.735c-2.179,2.491-3.271,5.592-3.271,9.304v20.338h-5.739v-37.908h4.738l0.658,7.022h0.276
			c1.405-2.469,3.1-4.371,5.082-5.707C144.764,448.168,146.942,447.5,149.317,447.5z"/>
		<path fill="#40382B" d="M196.979,486.792c-2.468,0-4.722-0.456-6.762-1.365c-2.041-0.91-3.753-2.312-5.136-4.202h-0.416
			c0.276,2.212,0.416,4.312,0.416,6.294v15.601h-5.741v-54.927h4.668l0.797,5.187h0.276c1.477-2.074,3.193-3.571,5.153-4.495
			c1.96-0.922,4.207-1.384,6.744-1.384c5.027,0,8.906,1.718,11.639,5.153c2.731,3.438,4.098,8.256,4.098,14.458
			c0,6.226-1.39,11.064-4.167,14.51C205.769,485.068,201.912,486.792,196.979,486.792z M196.147,452.377
			c-3.871,0-6.676,1.072-8.404,3.218c-1.729,2.145-2.617,5.558-2.662,10.237v1.279c0,5.326,0.886,9.138,2.662,11.433
			c1.777,2.293,4.624,3.441,8.544,3.441c3.272,0,5.838-1.326,7.695-3.978c1.855-2.653,2.784-6.307,2.784-10.966
			c0-4.725-0.929-8.353-2.784-10.877C202.125,453.64,199.514,452.377,196.147,452.377z"/>
		<path fill="#40382B" d="M238.762,486.792c-5.604,0-10.024-1.706-13.266-5.117c-3.239-3.414-4.86-8.152-4.86-14.217
			c0-6.112,1.506-10.964,4.514-14.563c3.011-3.597,7.052-5.396,12.123-5.396c4.751,0,8.51,1.564,11.276,4.687
			c2.767,3.126,4.151,7.247,4.151,12.366v3.632h-26.114c0.114,4.449,1.237,7.829,3.374,10.133c2.132,2.308,5.133,3.462,9.009,3.462
			c4.082,0,8.116-0.854,12.107-2.562v5.119c-2.03,0.877-3.95,1.504-5.762,1.886C243.505,486.603,241.32,486.792,238.762,486.792z
			 M237.204,452.308c-3.042,0-5.47,0.992-7.281,2.976c-1.809,1.983-2.876,4.727-3.197,8.232h19.817c0-3.62-0.808-6.394-2.421-8.319
			C242.508,453.271,240.203,452.308,237.204,452.308z"/>
		<path fill="#40382B" d="M279.783,447.5c1.683,0,3.193,0.139,4.531,0.415l-0.797,5.328c-1.568-0.348-2.951-0.52-4.151-0.52
			c-3.065,0-5.688,1.245-7.866,3.735c-2.18,2.491-3.27,5.592-3.27,9.304v20.338h-5.743v-37.908h4.741l0.655,7.022h0.278
			c1.405-2.469,3.101-4.371,5.083-5.707C275.229,448.168,277.407,447.5,279.783,447.5z"/>
		<path fill="#40382B" d="M315.857,475.759c0,3.529-1.316,6.25-3.944,8.164c-2.629,1.912-6.317,2.869-11.065,2.869
			c-5.029,0-8.947-0.794-11.762-2.386v-5.327c1.821,0.923,3.774,1.649,5.862,2.179c2.087,0.531,4.1,0.796,6.037,0.796
			c2.997,0,5.303-0.479,6.917-1.435c1.613-0.958,2.42-2.416,2.42-4.376c0-1.475-0.639-2.737-1.917-3.787
			c-1.282-1.049-3.777-2.289-7.489-3.718c-3.529-1.314-6.036-2.462-7.523-3.441c-1.485-0.98-2.594-2.093-3.319-3.338
			c-0.728-1.245-1.089-2.733-1.089-4.462c0-3.09,1.255-5.528,3.769-7.315c2.512-1.788,5.96-2.682,10.343-2.682
			c4.081,0,8.069,0.83,11.967,2.49l-2.039,4.67c-3.807-1.567-7.254-2.353-10.344-2.353c-2.722,0-4.775,0.428-6.157,1.281
			c-1.383,0.854-2.075,2.027-2.075,3.525c0,1.017,0.26,1.882,0.778,2.596c0.518,0.714,1.354,1.395,2.508,2.041
			c1.152,0.646,3.367,1.58,6.64,2.802c4.499,1.637,7.536,3.284,9.116,4.946C315.067,471.158,315.857,473.246,315.857,475.759z"/>
		<path fill="#40382B" d="M357.917,467.111c0,6.181-1.556,11.006-4.67,14.475c-3.112,3.472-7.412,5.206-12.9,5.206
			c-3.391,0-6.398-0.794-9.029-2.386c-2.628-1.592-4.656-3.873-6.087-6.85c-1.429-2.975-2.142-6.455-2.142-10.445
			c0-6.179,1.542-10.993,4.633-14.44c3.09-3.447,7.38-5.171,12.867-5.171c5.304,0,9.52,1.765,12.642,5.293
			C356.355,456.32,357.917,461.095,357.917,467.111z M329.035,467.111c0,4.843,0.97,8.533,2.908,11.068
			c1.935,2.537,4.781,3.806,8.542,3.806c3.757,0,6.61-1.263,8.561-3.789c1.947-2.523,2.922-6.218,2.922-11.085
			c0-4.818-0.975-8.479-2.922-10.981c-1.95-2.501-4.826-3.753-8.63-3.753c-3.757,0-6.595,1.233-8.51,3.702
			C329.991,458.547,329.035,462.224,329.035,467.111z"/>
		<path fill="#40382B" d="M393.925,486.101v-24.522c0-3.09-0.704-5.396-2.113-6.918c-1.406-1.522-3.605-2.283-6.604-2.283
			c-3.967,0-6.87,1.072-8.717,3.218c-1.846,2.145-2.766,5.684-2.766,10.619v19.887h-5.744v-37.908h4.672l0.933,5.187h0.277
			c1.178-1.866,2.822-3.313,4.947-4.339c2.119-1.026,4.484-1.54,7.089-1.54c4.565,0,8.002,1.103,10.307,3.304
			c2.307,2.201,3.46,5.726,3.46,10.566v24.73H393.925z"/>
		<path fill="#40382B" d="M434.771,486.101l-1.141-5.394h-0.279c-1.889,2.374-3.774,3.982-5.651,4.823
			c-1.881,0.842-4.227,1.262-7.039,1.262c-3.76,0-6.705-0.97-8.839-2.904c-2.132-1.937-3.199-4.692-3.199-8.268
			c0-7.656,6.123-11.667,18.365-12.037l6.435-0.207v-2.351c0-2.976-0.64-5.172-1.92-6.59s-3.326-2.128-6.141-2.128
			c-3.157,0-6.732,0.969-10.722,2.907l-1.766-4.394c1.871-1.014,3.916-1.811,6.142-2.387c2.224-0.575,4.457-0.864,6.694-0.864
			c4.519,0,7.868,1.003,10.047,3.009s3.269,5.222,3.269,9.65v25.871H434.771z M421.801,482.054c3.572,0,6.383-0.979,8.422-2.941
			c2.04-1.957,3.061-4.702,3.061-8.231v-3.423l-5.74,0.242c-4.567,0.16-7.857,0.869-9.874,2.128
			c-2.018,1.256-3.028,3.211-3.028,5.862c0,2.075,0.628,3.654,1.885,4.737C417.782,481.513,419.539,482.054,421.801,482.054z"/>
		<path fill="#40382B" d="M456.599,486.101h-5.744v-53.819h5.744V486.101z"/>
		<path fill="#40382B" d="M519.824,486.101l-6.295-16.084h-20.269l-6.226,16.084h-5.951l19.993-50.773h4.945l19.89,50.773H519.824z
			 M511.696,464.726l-5.88-15.669c-0.763-1.983-1.547-4.415-2.353-7.298c-0.506,2.214-1.234,4.647-2.179,7.298l-5.949,15.669
			H511.696z"/>
		<path fill="#40382B" d="M549.293,447.5c1.684,0,3.193,0.139,4.531,0.415l-0.797,5.328c-1.567-0.348-2.951-0.52-4.149-0.52
			c-3.065,0-5.691,1.245-7.868,3.735c-2.18,2.491-3.269,5.592-3.269,9.304v20.338H532v-37.908h4.737l0.657,7.022h0.278
			c1.406-2.469,3.101-4.371,5.083-5.707C544.738,448.168,546.918,447.5,549.293,447.5z"/>
		<path fill="#40382B" d="M576.063,486.792c-5.486,0-9.737-1.688-12.745-5.066c-3.008-3.379-4.514-8.157-4.514-14.337
			c0-6.34,1.529-11.241,4.582-14.701c3.056-3.458,7.408-5.188,13.06-5.188c1.819,0,3.641,0.196,5.464,0.589
			c1.82,0.392,3.25,0.854,4.287,1.384l-1.762,4.877c-1.271-0.508-2.653-0.929-4.151-1.263c-1.499-0.334-2.825-0.502-3.979-0.502
			c-7.7,0-11.552,4.912-11.552,14.735c0,4.658,0.939,8.23,2.819,10.72c1.88,2.493,4.664,3.739,8.353,3.739
			c3.159,0,6.4-0.683,9.72-2.043v5.085C583.108,486.135,579.913,486.792,576.063,486.792z"/>
		<path fill="#40382B" d="M620.579,486.101v-24.522c0-3.09-0.704-5.396-2.109-6.918c-1.409-1.522-3.608-2.283-6.605-2.283
			c-3.991,0-6.902,1.085-8.734,3.252c-1.835,2.169-2.749,5.717-2.749,10.653v19.818h-5.742v-53.819h5.742v16.292
			c0,1.96-0.097,3.584-0.278,4.876h0.347c1.127-1.822,2.736-3.256,4.823-4.307c2.086-1.048,4.468-1.572,7.144-1.572
			c4.636,0,8.11,1.102,10.428,3.303c2.319,2.202,3.479,5.703,3.479,10.497v24.73H620.579z"/>
		<path fill="#40382B" d="M637.633,437.919c0-1.313,0.32-2.276,0.967-2.888c0.645-0.61,1.453-0.916,2.42-0.916
			c0.922,0,1.719,0.311,2.389,0.934c0.667,0.621,1.001,1.581,1.001,2.87c0,1.292-0.334,2.255-1.001,2.889
			c-0.67,0.634-1.467,0.951-2.389,0.951c-0.967,0-1.775-0.317-2.42-0.951C637.953,440.174,637.633,439.211,637.633,437.919z
			 M643.858,486.101h-5.743v-37.908h5.743V486.101z"/>
		<path fill="#40382B" d="M668.276,482.054c1.015,0,1.993-0.075,2.939-0.225c0.944-0.15,1.695-0.306,2.247-0.468v4.395
			c-0.622,0.3-1.539,0.546-2.748,0.743c-1.211,0.196-2.301,0.293-3.27,0.293c-7.333,0-11-3.86-11-11.585v-22.554h-5.428v-2.767
			l5.428-2.387l2.422-8.095h3.32v8.787h11v4.461h-11v22.311c0,2.283,0.542,4.036,1.627,5.258
			C664.896,481.442,666.383,482.054,668.276,482.054z"/>
		<path fill="#40382B" d="M697.054,486.792c-5.604,0-10.025-1.706-13.267-5.117c-3.239-3.414-4.857-8.152-4.857-14.217
			c0-6.112,1.504-10.964,4.512-14.563c3.012-3.597,7.052-5.396,12.125-5.396c4.749,0,8.509,1.564,11.275,4.687
			c2.766,3.126,4.149,7.247,4.149,12.366v3.632h-26.113c0.117,4.449,1.239,7.829,3.374,10.133c2.133,2.308,5.135,3.462,9.008,3.462
			c4.083,0,8.118-0.854,12.108-2.562v5.119c-2.03,0.877-3.949,1.504-5.76,1.886C701.798,486.603,699.611,486.792,697.054,486.792z
			 M695.497,452.308c-3.044,0-5.472,0.992-7.282,2.976s-2.876,4.727-3.197,8.232h19.817c0-3.62-0.806-6.394-2.421-8.319
			C700.801,453.271,698.493,452.308,695.497,452.308z"/>
		<path fill="#40382B" d="M735.93,486.792c-5.487,0-9.736-1.688-12.746-5.066c-3.007-3.379-4.513-8.157-4.513-14.337
			c0-6.34,1.526-11.241,4.583-14.701c3.055-3.458,7.407-5.188,13.059-5.188c1.818,0,3.641,0.196,5.463,0.589
			c1.822,0.392,3.251,0.854,4.289,1.384l-1.764,4.877c-1.269-0.508-2.652-0.929-4.151-1.263s-2.823-0.502-3.977-0.502
			c-7.702,0-11.554,4.912-11.554,14.735c0,4.658,0.939,8.23,2.818,10.72c1.881,2.493,4.666,3.739,8.355,3.739
			c3.157,0,6.398-0.683,9.719-2.043v5.085C742.975,486.135,739.783,486.792,735.93,486.792z"/>
		<path fill="#40382B" d="M766.748,482.054c1.014,0,1.994-0.075,2.941-0.225c0.941-0.15,1.693-0.306,2.244-0.468v4.395
			c-0.62,0.3-1.539,0.546-2.748,0.743c-1.209,0.196-2.298,0.293-3.268,0.293c-7.334,0-11-3.86-11-11.585v-22.554h-5.43v-2.767
			l5.43-2.387l2.423-8.095h3.317v8.787h11.002v4.461h-11.002v22.311c0,2.283,0.544,4.036,1.629,5.258
			C763.369,481.442,764.856,482.054,766.748,482.054z"/>
		<path fill="#40382B" d="M784.907,448.192v24.593c0,3.089,0.702,5.395,2.107,6.917c1.409,1.522,3.609,2.283,6.608,2.283
			c3.965,0,6.865-1.085,8.699-3.252s2.751-5.707,2.751-10.619v-19.922h5.74v37.908h-4.738l-0.831-5.084h-0.31
			c-1.178,1.867-2.81,3.298-4.896,4.288c-2.087,0.991-4.467,1.487-7.142,1.487c-4.612,0-8.065-1.095-10.36-3.285
			s-3.441-5.696-3.441-10.515v-24.8H784.907z"/>
		<path fill="#40382B" d="M840.282,447.5c1.684,0,3.192,0.139,4.531,0.415l-0.796,5.328c-1.567-0.348-2.952-0.52-4.15-0.52
			c-3.066,0-5.691,1.245-7.87,3.735c-2.179,2.491-3.268,5.592-3.268,9.304v20.338h-5.741v-37.908h4.738l0.657,7.022h0.277
			c1.406-2.469,3.101-4.371,5.085-5.707C835.729,448.168,837.907,447.5,840.282,447.5z"/>
		<path fill="#40382B" d="M867.918,486.792c-5.604,0-10.023-1.706-13.265-5.117c-3.239-3.414-4.859-8.152-4.859-14.217
			c0-6.112,1.504-10.964,4.513-14.563c3.011-3.597,7.052-5.396,12.124-5.396c4.75,0,8.509,1.564,11.276,4.687
			c2.767,3.126,4.148,7.247,4.148,12.366v3.632h-26.111c0.113,4.449,1.238,7.829,3.372,10.133c2.134,2.308,5.136,3.462,9.01,3.462
			c4.082,0,8.117-0.854,12.106-2.562v5.119c-2.028,0.877-3.949,1.504-5.76,1.886C872.663,486.603,870.479,486.792,867.918,486.792z
			 M866.361,452.308c-3.043,0-5.47,0.992-7.281,2.976c-1.808,1.983-2.875,4.727-3.197,8.232h19.818c0-3.62-0.808-6.394-2.422-8.319
			C871.666,453.271,869.357,452.308,866.361,452.308z"/>
		<path fill="#40382B" d="M955.046,486.101h-5.812l-10.203-33.86c-0.484-1.499-1.026-3.391-1.627-5.673
			c-0.598-2.284-0.91-3.656-0.933-4.117c-0.507,3.044-1.314,6.377-2.421,9.995l-9.893,33.655h-5.812l-13.454-50.567h6.227
			l7.99,31.232c1.105,4.382,1.913,8.349,2.42,11.897c0.621-4.218,1.544-8.347,2.767-12.381l9.063-30.749h6.226l9.51,31.024
			c1.106,3.575,2.042,7.61,2.802,12.105c0.438-3.272,1.27-7.263,2.491-11.967l7.956-31.163h6.227L955.046,486.101z"/>
		<path fill="#40382B" d="M1008.347,467.111c0,6.181-1.559,11.006-4.671,14.475c-3.113,3.472-7.414,5.206-12.899,5.206
			c-3.39,0-6.399-0.794-9.03-2.386c-2.628-1.592-4.657-3.873-6.087-6.85c-1.431-2.975-2.144-6.455-2.144-10.445
			c0-6.179,1.544-10.993,4.636-14.44c3.088-3.447,7.377-5.171,12.864-5.171c5.305,0,9.518,1.765,12.644,5.293
			C1006.783,456.32,1008.347,461.095,1008.347,467.111z M979.465,467.111c0,4.843,0.969,8.533,2.904,11.068
			c1.938,2.537,4.786,3.806,8.542,3.806c3.76,0,6.612-1.263,8.562-3.789c1.949-2.523,2.924-6.218,2.924-11.085
			c0-4.818-0.975-8.479-2.924-10.981c-1.949-2.501-4.824-3.753-8.629-3.753c-3.759,0-6.596,1.233-8.509,3.702
			C980.423,458.547,979.465,462.224,979.465,467.111z"/>
		<path fill="#40382B" d="M1035.706,447.5c1.681,0,3.191,0.139,4.529,0.415l-0.795,5.328c-1.568-0.348-2.953-0.52-4.15-0.52
			c-3.067,0-5.692,1.245-7.872,3.735c-2.177,2.491-3.268,5.592-3.268,9.304v20.338h-5.74v-37.908h4.739l0.657,7.022h0.279
			c1.404-2.469,3.098-4.371,5.081-5.707C1031.149,448.168,1033.328,447.5,1035.706,447.5z"/>
		<path fill="#40382B" d="M1053.001,466.696c0.99-1.403,2.497-3.251,4.528-5.534l12.243-12.97h6.816l-15.358,16.153l16.432,21.755
			h-6.955l-13.384-17.916l-4.322,3.735v14.181h-5.674v-53.819h5.674v28.536c0,1.268-0.094,3.229-0.277,5.879H1053.001z"/>
		<path fill="#40382B" d="M1102.148,447.57c4.981,0,8.848,1.7,11.604,5.101c2.757,3.402,4.134,8.215,4.134,14.44
			s-1.389,11.064-4.168,14.51c-2.781,3.447-6.635,5.171-11.569,5.171c-2.47,0-4.721-0.456-6.762-1.365
			c-2.04-0.91-3.752-2.312-5.138-4.202h-0.414l-1.213,4.876h-4.114v-53.819h5.741v13.075c0,2.929-0.091,5.557-0.275,7.887h0.275
			C1092.925,449.461,1096.891,447.57,1102.148,447.57z M1101.32,452.377c-3.922,0-6.747,1.125-8.477,3.373
			c-1.729,2.248-2.595,6.036-2.595,11.361c0,5.326,0.889,9.138,2.663,11.433c1.775,2.293,4.622,3.441,8.544,3.441
			c3.529,0,6.156-1.285,7.888-3.856c1.729-2.571,2.593-6.267,2.593-11.087c0-4.935-0.864-8.611-2.593-11.033
			C1107.612,453.589,1104.938,452.377,1101.32,452.377z"/>
		<path fill="#40382B" d="M1143.932,486.792c-5.604,0-10.025-1.706-13.265-5.117c-3.241-3.414-4.859-8.152-4.859-14.217
			c0-6.112,1.505-10.964,4.513-14.563c3.01-3.597,7.051-5.396,12.124-5.396c4.749,0,8.508,1.564,11.274,4.687
			c2.768,3.126,4.151,7.247,4.151,12.366v3.632h-26.113c0.113,4.449,1.238,7.829,3.373,10.133c2.131,2.308,5.136,3.462,9.009,3.462
			c4.082,0,8.115-0.854,12.106-2.562v5.119c-2.03,0.877-3.949,1.504-5.76,1.886C1148.676,486.603,1146.491,486.792,1143.932,486.792
			z M1142.375,452.308c-3.044,0-5.471,0.992-7.281,2.976c-1.809,1.983-2.878,4.727-3.198,8.232h19.817
			c0-3.62-0.807-6.394-2.423-8.319C1147.68,453.271,1145.371,452.308,1142.375,452.308z"/>
		<path fill="#40382B" d="M1193.602,486.101v-24.522c0-3.09-0.705-5.396-2.111-6.918c-1.405-1.522-3.609-2.283-6.604-2.283
			c-3.968,0-6.873,1.072-8.718,3.218c-1.846,2.145-2.768,5.684-2.768,10.619v19.887h-5.74v-37.908h4.668l0.934,5.187h0.277
			c1.177-1.866,2.824-3.313,4.945-4.339c2.12-1.026,4.484-1.54,7.092-1.54c4.564,0,8.002,1.103,10.305,3.304
			c2.308,2.201,3.46,5.726,3.46,10.566v24.73H1193.602z"/>
		<path fill="#40382B" d="M1226.286,486.792c-5.489,0-9.737-1.688-12.745-5.066c-3.01-3.379-4.516-8.157-4.516-14.337
			c0-6.34,1.528-11.241,4.582-14.701c3.057-3.458,7.409-5.188,13.06-5.188c1.819,0,3.643,0.196,5.464,0.589
			c1.822,0.392,3.251,0.854,4.29,1.384l-1.767,4.877c-1.267-0.508-2.649-0.929-4.148-1.263c-1.501-0.334-2.823-0.502-3.979-0.502
			c-7.701,0-11.552,4.912-11.552,14.735c0,4.658,0.939,8.23,2.819,10.72c1.878,2.493,4.662,3.739,8.352,3.739
			c3.16,0,6.399-0.683,9.719-2.043v5.085C1233.328,486.135,1230.137,486.792,1226.286,486.792z"/>
		<path fill="#40382B" d="M1270.801,486.101v-24.522c0-3.09-0.703-5.396-2.109-6.918c-1.408-1.522-3.609-2.283-6.605-2.283
			c-3.992,0-6.901,1.085-8.736,3.252c-1.832,2.169-2.748,5.717-2.748,10.653v19.818h-5.742v-53.819h5.742v16.292
			c0,1.96-0.094,3.584-0.278,4.876h0.346c1.131-1.822,2.739-3.256,4.825-4.307c2.088-1.048,4.47-1.572,7.143-1.572
			c4.635,0,8.112,1.102,10.43,3.303c2.316,2.202,3.475,5.703,3.475,10.497v24.73H1270.801z"/>
	</g>
</g>
</svg>
