<?xml version="1.0" encoding="utf-8"?>
<!-- Generator: Adobe Illustrator 16.0.3, SVG Export Plug-In . SVG Version: 6.00 Build 0)  -->
<!DOCTYPE svg PUBLIC "-//W3C//DTD SVG 1.1//EN" "http://www.w3.org/Graphics/SVG/1.1/DTD/svg11.dtd">
<svg version="1.1" id="Ebene_1" xmlns="http://www.w3.org/2000/svg" xmlns:xlink="http://www.w3.org/1999/xlink" x="0px" y="0px"
	 width="789px" height="254.012px" viewBox="0 0 789 254.012" enable-background="new 0 0 789 254.012" xml:space="preserve">
<g>
	<path fill-rule="evenodd" clip-rule="evenodd" fill="#C1CE93" d="M46.701,29.604c5.794,6.617,32.846,2.492,40.87,2.734
		c16.385,0.5,32.852-0.175,49.2,1.183c34.007,2.831,69.328,0.815,103.342-1.14c6.464-0.371,37.032-6.992,41.563-3.427
		c7.052,5.555,3.228,38.37,3.247,46.638c0.062,35.111-5.452,70.249-5.452,105.303c-18.092-3.938-39.303,2.151-57.523,3.008
		c-23.4,1.105-46.801,2.775-70.206,3.659c-37.709,1.425-84.702-4.569-121.317,3.659"/>
	<g opacity="0.4">
		<path fill-rule="evenodd" clip-rule="evenodd" fill="#6F9974" d="M256.979,85.374c0.425-0.405,0.865-0.809,1.337-1.205
			C241.837,98.04,252.837,88.922,256.979,85.374z"/>
		<path fill-rule="evenodd" clip-rule="evenodd" fill="#6F9974" d="M278.677,29.954c-2.321-1.826-11.475-0.979-20.721,0.332
			c5.933,15.884,10.987,46.782,0.359,53.883c0.237-0.159-0.359,0.369-1.337,1.205c-22.248,21.267,17.816,55.026-29.828,69.104
			c-36.598,10.814-87.478,5.8-126.247,10.18c-14.688,1.659-44.559,6.395-71.262,5.553l-2.217,22.011
			c36.615-8.229,83.608-2.234,121.317-3.659c23.405-0.884,46.806-2.554,70.206-3.659c18.221-0.856,39.432-6.945,57.523-3.008
			c0-35.055,5.514-70.192,5.452-105.303C281.904,68.324,285.729,35.509,278.677,29.954z"/>
	</g>
	<g>
		<path fill-rule="evenodd" clip-rule="evenodd" fill="#92A8B4" d="M747.139,195.335c-32.545,0.64-66.27-2.927-99.296-2.441
			c-32.448,0.48-64.807-1.343-97.178-2.902c-12.715-0.611-13.193,0.557-12.688-12.373c0.624-15.912,0.422-31.798,1.144-47.703
			c1.462-32.369-3.099-64.86-1.744-97.375l2.392-5.572c41.122,10.188,85.93,14.631,128.17,17.008
			c35.425,2.004,68.63-2.897,103.511-3.886c-2.716,53.001-5.202,106.114-5.202,159.229L747.139,195.335z"/>
	</g>
	<path opacity="0.4" fill-rule="evenodd" clip-rule="evenodd" fill="#567483" d="M755.418,40.793
		c5.222,15.482-4.48,46.596-7.334,61.349c-2.115,10.938-4.199,21.888-6.549,32.788c-2.3,10.679-11.867,9.529-19.68,18.006
		c-27.74,30.105-96.055,18.843-134.776,18.02c-10.234-0.218-28.931,0.649-48.89,0.118c-0.059,2.181-0.127,4.362-0.212,6.544
		c-0.506,12.93-0.027,11.762,12.688,12.374c32.371,1.56,64.729,3.383,97.178,2.902c33.026-0.485,66.751,3.081,99.296,2.441
		l19.108,3.983c0-53.115,2.486-106.229,5.202-159.229C766.069,40.242,760.732,40.494,755.418,40.793z"/>
	<g>
		<g>
			<path d="M34.039,20.695c1.421,1.401,3.343,1.97,5.272,2.39c1.947,0.375,3.94,0.554,5.939,0.632
				c4.004,0.139,8.031-0.077,12.053-0.36c4.027-0.29,8.043-0.735,12.111-1.066c1.02-0.083,2.04-0.164,3.079-0.218
				c1.032-0.064,2.132-0.07,3.122-0.074l6.087-0.042c8.134,0.023,16.174-0.247,24.353-0.166c2.039,0.022,4.075,0.01,6.116,0.06
				l6.137,0.272l6.096,0.274l6.077,0.33l6.074,0.36l6.031,0.185l6.026,0.176c2.008,0.061,4.034,0.027,6.05,0.045
				c8.071,0.045,16.152,0.001,24.236-0.201c8.087-0.111,16.177-0.408,24.279-0.591c8.085-0.24,16.239-0.516,24.283-0.818
				c1.875-0.122,3.919-0.407,5.908-0.668l6.025-0.83c4.025-0.552,8.062-1.092,12.123-1.515c4.065-0.401,8.129-0.836,12.311-0.717
				c1.052,0.055,2.105,0.12,3.197,0.342c0.274,0.06,0.555,0.141,0.831,0.213c0.279,0.082,0.574,0.216,0.856,0.328
				c0.3,0.184,0.588,0.311,0.885,0.601c0.182,0.182,0.36,0.344,0.546,0.542c1.609,1.972,2.127,3.976,2.625,6.035
				c0.886,4.096,1.088,8.203,1.171,12.287c0.094,4.085,0.006,8.161-0.156,12.226l-0.572,12.165
				c-0.103,2.019-0.102,4.002-0.111,6.046l-0.024,6.085c-0.011,2.03,0.035,4.054-0.023,6.089l-0.175,6.107l-0.176,6.111
				l-0.296,6.089c-0.353,8.125-0.859,16.231-1.3,24.331c-0.456,8.1-0.917,16.184-1.247,24.261c-0.13,4.036-0.321,8.072-0.41,12.104
				l-0.104,12.085c-0.013,1.527-1.262,2.753-2.788,2.74c-0.177-0.001-0.35-0.02-0.517-0.053l-0.024-0.005
				c-4.819-0.988-9.834-1.241-14.878-1.093c-5.049,0.15-10.136,0.697-15.247,1.366l-15.473,2.144l-3.93,0.474l-3.968,0.386
				c-2.7,0.207-5.261,0.347-7.866,0.487c-10.393,0.555-20.779,1.198-31.177,1.681l-31.232,1.342
				c-1.316,0.043-2.57,0.113-3.937,0.135l-3.903,0.056c-2.589,0.06-5.236,0.019-7.863,0.009c-5.255-0.045-10.464-0.169-15.681-0.37
				l-31.192-1.281c-5.189-0.193-10.375-0.313-15.56-0.398c-5.185-0.079-10.368-0.049-15.548,0.085
				c-5.181,0.12-10.355,0.402-15.521,0.856c-2.584,0.209-5.146,0.589-7.728,0.867c-2.57,0.344-5.125,0.796-7.695,1.19l-0.019,0.003
				c-0.164,0.025-0.317-0.087-0.342-0.25c-0.024-0.156,0.078-0.302,0.229-0.337c2.539-0.588,5.073-1.236,7.63-1.777
				c2.57-0.451,5.136-0.981,7.722-1.354c5.17-0.774,10.369-1.377,15.58-1.816c5.212-0.428,10.435-0.689,15.656-0.875
				c5.222-0.193,10.443-0.239,15.66-0.271c5.217-0.02,10.43-0.009,15.636,0.053l15.599,0.139c5.188,0.013,10.386,0.047,15.539-0.036
				c2.576-0.051,5.133-0.067,7.746-0.188l3.9-0.146c1.233-0.047,2.577-0.15,3.86-0.223l31.135-1.76
				c10.386-0.638,20.783-1.136,31.174-1.71l7.719-0.418l3.806-0.312l3.827-0.402l15.485-1.905
				c5.215-0.602,10.499-1.094,15.856-1.172c5.351-0.074,10.797,0.269,16.167,1.456l-3.329,2.682l0.334-12.252
				c0.181-4.076,0.457-8.142,0.685-12.211c0.599-8.123,1.289-16.226,2.102-24.303c0.762-8.082,1.62-16.147,2.264-24.219l0.508-6.055
				l0.387-6.046l0.388-6.05c0.13-2.018,0.155-4.052,0.237-6.078l0.176-6.083c0.049-2.013,0.09-4.087,0.235-6.118
				c0.267-4.062,0.56-8.098,0.733-12.14c0.188-4.04,0.303-8.08,0.234-12.107c-0.115-4.016-0.364-8.059-1.234-11.894
				c-0.213-0.959-0.508-1.88-0.839-2.771c-0.356-0.847-0.833-1.734-1.291-2.273c-0.163-0.167-0.366-0.343-0.546-0.514
				c-0.062-0.07-0.255-0.148-0.38-0.232c-0.194-0.061-0.362-0.142-0.571-0.197l-0.647-0.147c-0.903-0.16-1.882-0.2-2.855-0.224
				c-3.938,0.007-7.963,0.479-11.945,1.06c-3.989,0.593-7.971,1.303-11.958,2.029l-5.993,1.094c-2.02,0.353-3.983,0.726-6.15,0.964
				c-8.154,0.662-16.204,1.268-24.324,1.855c-8.107,0.596-16.229,0.998-24.364,1.313c-4.064,0.17-8.142,0.17-12.213,0.252
				c-4.071,0.113-8.15,0.031-12.226-0.028c-2.04-0.041-4.072-0.028-6.119-0.112l-6.136-0.246l-6.132-0.256l-6.069-0.44l-6.067-0.47
				l-6.055-0.413l-6.015-0.408c-2.012-0.096-4.034-0.13-6.051-0.199c-8.043-0.373-16.235-0.357-24.324-0.718l-6.082-0.245
				c-1.039-0.044-1.967-0.085-2.962-0.071c-0.988,0.005-1.993,0.037-2.999,0.07c-4.03,0.159-8.105,0.334-12.185,0.396
				c-4.08,0.062-8.181,0.012-12.273-0.432c-2.043-0.226-4.091-0.543-6.09-1.119c-0.994-0.31-1.988-0.635-2.921-1.133
				c-0.474-0.229-0.917-0.516-1.355-0.834c-0.21-0.173-0.44-0.338-0.626-0.518l-0.522-0.554l-0.009-0.009
				c-0.114-0.121-0.108-0.311,0.013-0.424C33.741,20.579,33.925,20.583,34.039,20.695z"/>
		</g>
		<g>
			<path d="M21.795,176.84c0,0-0.417-2.385-0.803-6.552c-0.109-1.043-0.22-2.188-0.21-3.465c-0.027-1.272-0.042-2.651-0.015-4.127
				c-0.037-2.978,0.192-6.256,0.497-9.834c0.146-1.794,0.341-3.647,0.588-5.554c0.225-1.912,0.511-3.882,0.859-5.897
				c0.654-4.014,1.771-8.203,2.667-12.55c0.245-1.086,0.451-2.188,0.679-3.295c0.248-1.107,0.404-2.229,0.545-3.359
				c0.293-2.26,0.516-4.56,0.655-6.881c-0.001-1.161-0.003-2.326-0.004-3.495c-0.032-1.167-0.064-2.338-0.096-3.512
				c-0.06-2.326-0.394-4.722-0.63-7.083c-0.519-4.738-1.098-9.478-1.364-14.15c-0.158-2.338-0.252-4.668-0.379-6.966
				c-0.13-2.299-0.224-4.57-0.266-6.815c-0.068-2.242-0.09-4.448-0.091-6.607c0.013-2.16,0.143-4.28,0.241-6.339
				c0.063-1.029,0.125-2.044,0.185-3.044c0.058-0.999,0.119-1.983,0.252-2.951c0.225-1.932,0.443-3.799,0.652-5.591
				c0.403-3.58,1.098-6.836,1.675-9.708c0.289-1.437,0.557-2.779,0.867-4.01c0.341-1.228,0.651-2.353,0.961-3.362
				c0.592-2.023,1.097-3.597,1.447-4.667c0.362-1.066,0.555-1.634,0.555-1.634c0.054-0.158,0.225-0.243,0.383-0.189
				c0.127,0.043,0.207,0.163,0.205,0.29l0,0.019c0,0-0.008,0.602-0.023,1.731c-0.028,1.124-0.076,2.769-0.188,4.841
				c-0.043,1.038-0.122,2.181-0.205,3.422c-0.029,1.248-0.061,2.597-0.095,4.04c-0.036,2.883-0.304,6.094-0.245,9.636
				c-0.071,3.527-0.155,7.336-0.124,11.384c-0.03,2.021-0.062,4.096-0.094,6.217c-0.011,2.127-0.044,4.3-0.122,6.51
				c-0.138,4.42-0.171,9.011-0.287,13.675c-0.031,4.675-0.37,9.432-0.656,14.191c-0.229,4.742-0.653,9.556-0.728,14.254
				c-0.429,4.679-0.381,9.324-0.535,13.812c-0.036,4.511-0.207,8.836-0.619,12.916c-0.394,4.052-1.103,7.86-1.604,11.352
				c-0.576,3.479-1.104,6.669-1.573,9.497c-0.212,1.408-0.451,2.729-0.685,3.953c-0.254,1.216-0.364,2.375-0.535,3.408
				c-0.599,4.143-1.139,6.505-1.139,6.505c-0.037,0.165-0.201,0.269-0.365,0.231C21.905,177.058,21.816,176.958,21.795,176.84z"/>
		</g>
	</g>
	<path fill-rule="evenodd" clip-rule="evenodd" fill="#E2E036" d="M715.452,62.973c0.01-0.047,0.02-0.095,0.03-0.143
		C715.472,62.878,715.462,62.926,715.452,62.973z"/>
	<g>
		<g>
			<g>
				<path d="M758.998,192.866c-0.202-3.346-0.377-6.692-0.518-10.038l-0.383-10.036l-0.276-10.035l-0.191-10.034
					c-0.028-6.696,0.108-13.393,0.155-20.092l0.413-20.093l0.457-10.028l0.605-10.021c0.468-6.678,0.984-13.354,1.529-20.026
					c0.585-6.669,1.172-13.337,1.642-20.011c0.232-3.337,0.49-6.673,0.658-10.013c0.176-3.34,0.409-6.676,0.538-10.018l0.937,0.959
					c-4.879,0.236-9.759,0.412-14.633,0.771c-4.875,0.366-9.741,0.767-14.611,1.246l-14.61,1.478
					c-4.872,0.494-9.748,1.008-14.645,1.383c-2.446,0.191-4.889,0.433-7.342,0.583l-7.366,0.396
					c-4.906,0.339-9.843,0.313-14.771,0.438c-1.232,0.013-2.464,0.072-3.698,0.046l-3.704-0.075l-7.41-0.166
					c-2.518-0.036-4.906-0.228-7.366-0.334l-7.329-0.39c-4.879-0.28-9.793-0.71-14.688-1.058c-4.904-0.332-9.778-0.929-14.664-1.41
					c-2.44-0.26-4.884-0.487-7.322-0.776l-7.307-0.95l-7.303-0.964c-2.432-0.342-4.857-0.732-7.282-1.126
					c-4.847-0.809-9.706-1.506-14.523-2.491l-7.23-1.42c-2.409-0.471-4.821-0.925-7.208-1.522c-4.78-1.143-9.575-2.185-14.316-3.463
					c-4.729-1.331-9.46-2.632-14.155-4.035c-0.159-0.047-0.249-0.214-0.201-0.374c0.043-0.146,0.188-0.234,0.335-0.21l0.011,0.002
					c4.844,0.775,9.653,1.652,14.463,2.5l14.484,2.199c2.407,0.387,4.826,0.708,7.248,1.01l7.257,0.936
					c4.823,0.7,9.684,1.163,14.527,1.709l7.265,0.814l7.282,0.685l7.277,0.699c2.426,0.238,4.858,0.414,7.287,0.624
					c4.859,0.404,9.719,0.82,14.577,1.161c4.864,0.36,9.697,0.8,14.587,1.095c4.866,0.313,9.792,0.758,14.606,1.012l7.259,0.333
					l3.631,0.174c1.21,0.059,2.426,0.033,3.639,0.054c4.855,0.021,9.709,0.144,14.578-0.006c4.865-0.084,9.734-0.166,14.614-0.343
					l7.32-0.207l7.331-0.258l14.676-0.535c4.89-0.224,9.796-0.323,14.687-0.568l14.693-0.49c0.5-0.018,0.921,0.372,0.938,0.872
					c0.002,0.028,0.001,0.061-0.001,0.088c-0.2,3.337-0.296,6.681-0.449,10.021c-0.16,3.339-0.232,6.684-0.328,10.026
					c-0.188,6.686-0.26,13.376-0.333,20.066c-0.013,6.691-0.054,13.38-0.145,20.065l-0.23,10.024l-0.379,10.017l-0.747,20.016
					c-0.341,6.671-0.59,13.344-1.005,20.018l-0.408,10.028l-0.493,10.027l-0.6,10.026c-0.214,3.342-0.461,6.684-0.735,10.024
					c-0.014,0.166-0.158,0.289-0.324,0.275C759.123,193.135,759.007,193.013,758.998,192.866z"/>
			</g>
		</g>
		<g>
			<path d="M740.048,189.156c0,0-1.435,0.094-4.125,0.271c-2.689,0.158-6.634,0.378-11.654,0.584
				c-2.51,0.122-5.289,0.211-8.314,0.312c-3.028,0.057-6.311,0.023-9.815-0.01c-7.004-0.032-14.959-0.194-23.53-0.387
				c-8.587-0.246-17.9-0.623-27.698-0.74c-2.453-0.076-4.939-0.153-7.457-0.23c-2.53-0.108-5.092-0.217-7.681-0.327
				c-5.176-0.215-10.464-0.434-15.842-0.657c-2.688-0.103-5.4-0.206-8.131-0.31c-2.734-0.146-5.487-0.292-8.259-0.439
				c-2.77-0.153-5.556-0.264-8.356-0.351c-2.8-0.091-5.614-0.214-8.44-0.264c-11.285-0.495-22.772-0.629-34.249-0.792
				c-5.736-0.071-11.474-0.143-17.188-0.214c-1.428-0.025-2.846-0.019-4.378-0.11c-0.369-0.011-0.766-0.047-1.172-0.094
				c-0.404-0.045-0.789-0.07-1.246-0.175c-0.447-0.098-0.857-0.146-1.373-0.354l-0.734-0.277c-0.251-0.117-0.52-0.295-0.772-0.454
				c-0.526-0.289-0.963-0.788-1.38-1.271c-0.36-0.485-0.631-1.028-0.854-1.531c-0.148-0.467-0.329-0.981-0.417-1.424l-0.215-1.295
				c-0.154-1.61-0.186-3.114-0.171-4.552c0.136-11.331,0.148-22.406,0.326-33.195c0.054-5.392,0.195-10.691,0.319-15.878
				c0.061-2.567,0.12-5.106,0.179-7.615c0.076-2.524,0.201-5.034,0.233-7.479c0.028-9.707-0.061-18.992-0.285-27.586
				c-0.153-8.589-0.362-16.489-0.355-23.5c-0.005-3.508-0.003-6.788,0.045-9.823c0.088-3.039,0.166-5.828,0.277-8.345
				c0.051-1.258,0.099-2.449,0.145-3.569c0.082-1.12,0.159-2.17,0.231-3.147c0.147-1.951,0.272-3.611,0.374-4.957
				c0.232-2.686,0.356-4.119,0.356-4.119c0.015-0.165,0.16-0.287,0.325-0.273c0.151,0.013,0.268,0.137,0.273,0.286l0.001,0.013
				c0,0,0.064,1.435,0.185,4.125c0.045,1.343,0.102,2.999,0.167,4.945c0.031,0.972,0.065,2.017,0.102,3.131
				c0.073,1.114,0.151,2.299,0.233,3.55c0.177,2.501,0.328,5.269,0.496,8.28c0.223,3.012,0.465,6.269,0.723,9.749
				c0.526,6.971,1.121,14.836,1.769,23.417c0.311,4.293,0.521,8.795,0.784,13.446c0.157,2.318,0.201,4.706,0.248,7.132
				c0.053,2.425,0.106,4.886,0.16,7.382c0.021,2.484-0.05,4.968-0.071,7.502c-0.063,2.548-0.129,5.127-0.194,7.735
				c-0.14,5.162-0.267,10.435-0.486,15.796c-0.402,10.713-0.752,21.864-1.256,33.111c-0.069,1.384-0.077,2.712-0.015,3.928
				l0.102,0.807c0.038,0.253,0.11,0.408,0.146,0.625c0.067,0.135,0.106,0.248,0.151,0.335c0.071,0.03,0.047,0.132,0.168,0.172
				c0.289,0.297,1.598,0.603,2.882,0.732c1.309,0.154,2.745,0.232,4.172,0.336c5.7,0.473,11.423,0.948,17.146,1.423
				c11.438,1.012,22.88,1.748,34.16,2.246c2.817,0.119,5.626,0.135,8.42,0.198c2.793,0.064,5.573,0.103,8.336,0.099
				c2.763,0.005,5.508,0.042,8.233-0.009c2.731-0.097,5.442-0.193,8.132-0.289c5.378-0.209,10.666-0.415,15.842-0.616
				c2.587-0.057,5.146-0.112,7.673-0.167c2.541-0.024,5.051-0.047,7.527-0.07c2.478-0.026,4.92,0.021,7.327,0.027
				c2.41-0.012,4.77,0.076,7.089,0.209c4.64,0.232,9.122,0.456,13.426,0.671c8.623,0.512,16.431,0.96,23.398,1.484
				c3.482,0.256,6.741,0.497,9.754,0.718c3.024,0.146,5.803,0.275,8.312,0.434c5.018,0.28,8.96,0.558,11.648,0.755
				c2.688,0.216,4.121,0.332,4.121,0.332c0.166,0.012,0.29,0.156,0.278,0.322C740.316,189.03,740.194,189.146,740.048,189.156z"/>
		</g>
	</g>
	<g opacity="0.6">
		<g>
			<path fill-rule="evenodd" clip-rule="evenodd" fill="#C1C1B5" d="M503.606,120.945c-55.263-0.185-110.637,3.235-165.417-7.242
				c-0.209,1.786,0.484,2.073,1.09,2.215c1.938,0.449,3.889,0.865,5.854,1.172C397.775,125.277,450.692,123.404,503.606,120.945z"/>
			<path fill="#C1C1B5" d="M503.606,121.245c-3.455,0.293-6.911,0.537-10.366,0.751c-3.452,0.213-6.903,0.446-10.354,0.606
				c-3.453,0.195-6.905,0.379-10.358,0.513c-3.454,0.147-6.909,0.32-10.364,0.414l-10.371,0.311l-10.38,0.148
				c-3.462,0.036-6.925,0.043-10.388,0.008c-3.464-0.054-6.928-0.193-10.391-0.308c-3.464-0.163-6.925-0.394-10.385-0.606
				l-10.371-0.859l-10.354-0.992c-3.447-0.377-6.895-0.697-10.34-1.04c-3.443-0.381-6.886-0.738-10.334-1.055
				c-3.442-0.377-6.878-0.805-10.328-1.141c-3.437-0.44-6.875-0.877-10.323-1.266l-10.314-1.445l1.903-1.395
				c-0.01,0.299,0.006,0.644,0.048,0.647c0.002,0.002,0.001,0.014,0,0.011c0.001-0.021-0.003-0.04-0.012-0.057
				c-0.02-0.02-0.043-0.083-0.094-0.135c-0.063-0.039-0.074-0.09-0.134-0.105c0.008-0.017-0.051-0.025,0.011-0.016l2.423,0.386
				l2.586,0.415l0.646,0.104l0.162,0.026l0.041,0.006c-0.037-0.006,0.141,0.023-0.074-0.012l0.082,0.007l0.326,0.03l1.304,0.122
				c3.479,0.319,6.957,0.647,10.43,1.01l5.21,0.542l2.602,0.284l2.593,0.178l10.361,0.75c3.452,0.251,6.893,0.549,10.375,0.627
				l10.41,0.426l5.203,0.217l5.211,0.101l10.421,0.249c1.737,0.045,3.473,0.13,5.211,0.143l5.217,0.051l10.437,0.162
				c3.479,0.101,6.963,0.055,10.446,0.068l10.454,0.084l10.463,0.032c3.489,0.001,6.979,0.033,10.472,0.08
				c6.984,0.038,13.974,0.103,20.972,0.323L503.606,121.245z M503.62,121.245c-3.475,0.416-6.953,0.796-10.432,1.154
				c-3.48,0.342-6.959,0.71-10.443,0.999c-3.484,0.296-6.971,0.578-10.458,0.829c-3.488,0.248-6.973,0.561-10.468,0.721
				l-10.484,0.542c-3.497,0.143-6.991,0.343-10.494,0.397l-10.506,0.209c-3.503,0.083-7.006,0.099-10.513,0.021l-10.517-0.231
				l-5.257-0.157l-5.253-0.344l-10.503-0.698c-3.498-0.189-7.003-0.608-10.504-0.978l-10.498-1.133l-2.621-0.292l-2.589-0.394
				l-5.171-0.833c-3.448-0.554-6.891-1.143-10.333-1.741l-1.291-0.222l-0.323-0.056l-0.081-0.014
				c-0.241-0.04-0.089-0.017-0.154-0.028l-0.04-0.009l-0.159-0.039l-0.637-0.153l-2.547-0.614l-1.274-0.307l-0.637-0.154
				l-0.319-0.077l-0.159-0.038c-0.15-0.034-0.078-0.02-0.128-0.032l-0.063-0.019l-0.126-0.038c-0.151-0.041-0.406-0.152-0.6-0.249
				c-0.231-0.148-0.462-0.275-0.656-0.494c-0.205-0.208-0.376-0.432-0.48-0.657c-0.06-0.114-0.115-0.229-0.165-0.346
				c-0.037-0.105-0.06-0.202-0.087-0.304c-0.211-0.839-0.112-1.385-0.06-1.951l0.162-1.764l1.741,0.369l10.105,2.143
				c3.388,0.62,6.789,1.178,10.19,1.74c3.412,0.495,6.838,0.88,10.257,1.325c3.431,0.349,6.868,0.64,10.304,0.917
				c3.446,0.173,6.891,0.354,10.336,0.485l10.348,0.137l20.689-0.191c3.447-0.031,6.895-0.089,10.34-0.061
				c3.448-0.015,6.896,0.01,10.345,0.065l10.353,0.067l10.36,0.14c3.456,0.025,6.912,0.129,10.368,0.208
				c3.458,0.07,6.916,0.19,10.373,0.322c3.461,0.119,6.921,0.311,10.379,0.482c3.455,0.211,6.911,0.453,10.366,0.744l2.951,0.248
				L503.62,121.245z"/>
		</g>
		<g>
			<path fill-rule="evenodd" clip-rule="evenodd" fill="#C1C1B5" d="M363.857,81.939c-12.348,4.918-24.043,11.483-36.985,14.886
				c-7.848,2.065-15.775,3.819-23.66,5.745c-0.992,0.241-2.45,0.051-2.758,1.236c-0.356,1.378,1.115,2.005,1.966,2.738
				c5.25,4.54,11.47,7.699,16.945,11.975c7.749,6.049,15.384,12.29,23.803,17.464c3.191,1.964,6.425,3.758,9.879,5.177
				c0.802,0.33,1.78,1.251,2.32-0.099c0.46-1.149-0.695-1.649-1.521-1.954c-3.27-1.205-6.237-2.946-9.201-4.755
				c-14.326-8.732-26.463-20.494-41.045-29.71c21.289-3.712,40.897-11.63,60.217-20.375
				C363.97,83.493,365.896,82.749,363.857,81.939z"/>
			<path fill="#C1C1B5" d="M363.853,82.281l-10.873,5.825c-3.668,1.944-7.373,3.881-11.172,5.657
				c-3.825,1.745-7.715,3.417-11.799,4.68c-1.021,0.318-2.019,0.684-3.061,0.963l-3.013,0.781l-6.031,1.548
				c-4.015,1.052-8.052,2.018-12.11,2.899l-1.523,0.325c-0.341,0.1-1.472,0.268-1.8,0.281l-0.22,0.027
				c-0.086,0.006-0.063,0.012-0.058,0.002c-0.032-0.005,0.067-0.029,0.146-0.088c0.041-0.052,0.193-0.138,0.283-0.267
				c0.08-0.146,0.159-0.219,0.197-0.343c0.01-0.029,0.017-0.06,0.021-0.089l0.005-0.045c-0.012,0.05,0.124-0.688,0.063-0.349
				l-0.03,0.193c-0.022,0.097-0.05,0.4-0.007,0.035c0.003-0.109-0.012-0.22-0.045-0.321c-0.016-0.05-0.037-0.099-0.06-0.144
				l-0.016-0.05c-0.009-0.051-0.088-0.12-0.092-0.121c0.007,0.003,0.003,0.01,0,0.028c0.081,0.078,0.157,0.173,0.341,0.318
				l0.648,0.53l0.587,0.505l2.363,2.031l1.174,1.025l1.195,0.909l2.398,1.83l5.012,3.74c3.373,2.612,6.495,5.309,9.701,7.95
				c1.613,1.298,3.242,2.578,4.879,3.847c1.648,1.251,3.352,2.417,5.025,3.629c1.647,1.253,3.448,2.263,5.182,3.372l2.595,1.605
				l2.754,1.454l1.377,0.727c0.458,0.249,0.917,0.491,1.387,0.664l2.785,1.152l1.384,0.576l0.416,0.175
				c0.112,0.044,0.244,0.103,0.395,0.177c0.167,0.082,0.25,0.114,0.322,0.143c0.105,0.05,0.1,0.021,0.123,0.033
				c0.03,0.015-0.023-0.016-0.071-0.025c-0.05-0.012-0.085-0.005-0.148,0c-0.197-0.041-0.419,0.126-0.524,0.156
				c-0.063,0.034-0.119,0.084-0.16,0.141c-0.044,0.072-0.033,0.011-0.048,0.027c-0.008-0.001-0.013,0.001-0.015,0.004l0.001,0.006
				c0.017-0.044-0.143,0.446-0.07,0.214l0.009-0.048l0.038-0.191l0.019-0.096c0.018-0.061-0.007-0.016-0.026,0.041
				c-0.034,0.095-0.045,0.203-0.033,0.303c0.006,0.05,0.019,0.1,0.034,0.142c0,0.026,0.002,0.052,0.008,0.077
				c0.029,0.11,0.1,0.188,0.099,0.217c0.048,0.049,0.035,0.048,0.011,0.042c-0.028-0.012-0.168-0.073-0.329-0.128l-0.286-0.093
				l-0.43-0.156l-1.467-0.527c-0.48-0.158-0.989-0.375-1.504-0.609l-1.538-0.681c-0.973-0.477-1.938-0.947-2.874-1.454l-1.388-0.763
				c-0.251-0.142-0.418-0.223-0.738-0.414l-0.67-0.397c-1.791-1.068-3.569-2.087-5.336-3.25c-1.757-1.186-3.563-2.35-5.277-3.572
				l-5.094-3.68l-5.014-3.728c-3.307-2.507-6.622-4.962-9.94-7.374l-4.996-3.547l-5.062-3.386l-6.607-4.42l7.77-1.452l7.682-1.435
				l7.643-1.726l7.599-2.003c2.508-0.769,5.038-1.485,7.561-2.231c2.502-0.816,5.005-1.644,7.526-2.429
				c2.5-0.853,4.988-1.744,7.505-2.572l15.011-5.349l-0.331,0.418c0.163-0.507,0.426-0.68,0.615-0.878
				c0.197-0.18,0.38-0.345,0.461-0.46c0.037-0.059,0.05-0.063,0.053-0.076c0.017-0.011-0.011-0.078-0.077-0.141
				C364.199,82.483,364.028,82.38,363.853,82.281z M363.968,81.661c0.265,0.092,0.533,0.17,0.813,0.375
				c0.131,0.097,0.296,0.236,0.373,0.479c0.09,0.236,0.039,0.505-0.036,0.678c-0.075,0.179-0.167,0.319-0.252,0.438l-0.246,0.33
				c-0.076,0.102-0.145,0.196-0.186,0.276c-0.029,0.044-0.033,0.074-0.044,0.102c-0.018,0.035,0.008,0.03-0.002,0.04l-0.332,0.418
				c-2.338,1.282-4.685,2.551-7.046,3.793c-2.372,1.224-4.768,2.4-7.159,3.593c-2.412,1.152-4.851,2.247-7.283,3.368
				c-2.459,1.062-4.933,2.094-7.415,3.114c-2.514,0.939-5.016,1.926-7.549,2.829l-7.69,2.492c-2.597,0.735-5.209,1.424-7.821,2.123
				l-7.943,1.692l1.163-5.872l5.309,3.507l5.116,3.719c3.33,2.56,6.598,5.164,9.828,7.774l4.828,3.901l4.851,3.814l4.865,3.652
				c0.789,0.619,1.691,1.182,2.535,1.774l2.554,1.784l0.638,0.447c0.118,0.088,0.4,0.265,0.593,0.393l1.281,0.839l2.552,1.6
				l1.249,0.708c0.408,0.24,0.832,0.479,1.321,0.694l1.409,0.667l0.176,0.083l0.088,0.042l0.044,0.021
				c0.028,0.013-0.099-0.036-0.02-0.004l0.438,0.194c0.313,0.153,0.646,0.316,1.032,0.617c0.188,0.145,0.378,0.304,0.583,0.563
				c0.193,0.21,0.371,0.524,0.499,0.875c0.142,0.279,0.183,0.856,0.137,1.281c-0.032,0.296-0.045,0.228-0.065,0.326l-0.057,0.187
				l-0.116,0.352l-0.092,0.177l-0.202,0.345c-0.086,0.123-0.106,0.2-0.256,0.352c-0.138,0.143-0.291,0.279-0.452,0.399
				c-0.272,0.25-0.795,0.394-1.227,0.451c-0.19,0.008-0.356-0.012-0.535-0.033c-0.177-0.022-0.36-0.06-0.45-0.1
				c-0.22-0.078-0.477-0.178-0.6-0.253c-0.161-0.084-0.312-0.167-0.372-0.208c-0.076-0.051-0.176-0.108-0.301-0.172l-0.086-0.046
				l-0.043-0.023c0.116,0.049,0.006,0,0.021,0.005l-0.179-0.094l-1.43-0.756l-2.843-1.51c-0.961-0.488-1.782-1.087-2.679-1.625
				l-2.638-1.657l-2.611-1.811c-1.715-1.2-3.463-2.353-5.121-3.616l-5.02-3.729c-1.65-1.266-3.31-2.52-4.983-3.757l-5.017-3.693
				l-1.258-0.917l-1.289-0.834l-2.568-1.663c-1.748-1.09-3.56-2.071-5.361-3.147l-2.761-1.655l-1.384-0.833l-1.282-0.887
				l-2.55-1.793l-0.318-0.225l-0.08-0.056l-0.114-0.09l-0.026-0.017l-0.101-0.067l-0.599-0.402c-0.239-0.155-0.553-0.403-0.86-0.669
				c-0.175-0.176-0.348-0.366-0.512-0.558c-0.167-0.201-0.343-0.518-0.485-0.79c-0.037-0.074-0.07-0.135-0.105-0.222
				c-0.037-0.108-0.071-0.22-0.101-0.334c-0.06-0.228-0.102-0.466-0.126-0.702c-0.047-0.617-0.006-0.574-0.007-0.735l0.013-0.194
				c-0.055,0.308,0.075-0.466,0.081-0.444l0.044-0.134l0.099-0.268c0.15-0.357,0.292-0.694,0.58-1.009
				c0.267-0.318,0.58-0.614,0.865-0.771c0.302-0.194,0.622-0.354,0.845-0.42c0.252-0.091,0.519-0.174,0.691-0.204
				c0.189-0.042,0.416-0.09,0.546-0.107c0.701-0.117,0.602-0.077,1.262-0.262l1.502-0.409c4.009-1.077,8.039-2.071,12.091-2.978
				l6.07-1.391l3.037-0.688c0.977-0.203,1.949-0.5,2.925-0.746c1.96-0.472,3.891-1.11,5.827-1.735
				c1.942-0.6,3.866-1.324,5.806-1.983l11.615-4.389c3.901-1.459,7.863-2.849,11.865-3.995l0.126-0.036L363.968,81.661z"/>
		</g>
		<g>
			<path fill-rule="evenodd" clip-rule="evenodd" fill="#C1C1B5" d="M446.309,103.436c-0.78-0.155-1.562-0.434-2.344-0.441
				c-24.761-0.236-49.478-2.741-74.26-1.68c-9.048,0.388-18.072,0.954-27.102-0.158c-0.468-0.058-0.976,0.224-1.766,0.424
				c1.035,2.213,2.929,1.835,4.469,1.929c11.582,0.71,23.166,0.028,34.743-0.188c15.996-0.297,31.942,0.792,47.913,1.155
				c0.931,0.021,1.861-0.061,2.793-0.096c4.802,0.698,9.627,0.167,14.439,0.276C445.979,104.671,446.381,104.245,446.309,103.436z"
				/>
			<path fill="#C1C1B5" d="M445.962,103.703c-0.458-0.042-0.934-0.109-1.351-0.125c-0.268-0.017-0.472,0.014-0.746,0.027
				l-0.827,0.075l-3.307,0.276c-2.207,0.138-4.404,0.341-6.617,0.39c-2.211,0.085-4.425,0.159-6.639,0.183
				c-2.214,0.036-4.415,0.061-6.622,0.043c-4.414-0.015-8.807-0.102-13.204-0.245c-2.194-0.051-4.388-0.118-6.58-0.223
				c-2.194-0.123-4.38-0.217-6.568-0.367l-13.131-0.975c-2.193-0.188-4.381-0.203-6.577-0.294c-2.192-0.079-4.391-0.109-6.594-0.065
				l-6.611,0.179c-2.209,0.084-4.413,0.182-6.635,0.186c-2.22,0.007-4.438,0.141-6.672,0.012l-3.356-0.106l-0.841-0.02l-0.421-0.01
				l-0.21-0.005l-0.026,0c0.422,0.021,0.102,0.007,0.189,0.013l-0.051,0.005l-0.103,0.01c-0.06,0.008-0.156,0.01-0.187,0.023
				c0.003,0.019,0.008,0.032,0.012,0.041c-0.003,0.012,0.025,0.005-0.007,0.018l-0.185,0.073c-0.22,0.093-0.565,0.208-0.865,0.311
				l1.056-2.229c0.093,0.109,0.175,0.219,0.25,0.333c0.076,0.116,0.176,0.126,0.241,0.208c0.071,0.07,0.173,0.058,0.237,0.114
				l0.313,0.064c0.275,0.02,0.594,0.029,1.049,0.005l0.739-0.025l0.703-0.02l5.678-0.139c0.944-0.017,1.896-0.015,2.834-0.048
				l2.793-0.137l5.575-0.214l11.31-0.573l5.685-0.257c2.001-0.053,3.811-0.085,5.725-0.095c1.89-0.021,3.78-0.024,5.669-0.013
				c1.89-0.004,3.81,0.117,5.712,0.182l5.718,0.27c1.913,0.079,3.785,0.237,5.676,0.37c3.772,0.259,7.554,0.559,11.308,0.866
				c1.88,0.149,3.761,0.293,5.642,0.478l2.822,0.262l2.775,0.084l0.193,0.006l0.074,0.013l1.925,0.321
				c0.649,0.092,1.281,0.255,1.954,0.291c1.338,0.093,2.655,0.276,4.029,0.348c1.364,0.086,2.725,0.174,4.11,0.321l2.062,0.208
				c0.058,0.018,0.384,0.037,0.408,0.024c0.081,0.011,0.183-0.027,0.25-0.063C445.856,104.04,445.92,103.89,445.962,103.703z
				 M446.607,103.409c0.062,0.365,0.087,0.868-0.283,1.277c-0.182,0.193-0.392,0.328-0.648,0.394
				c-0.306,0.083-0.329,0.078-0.609,0.108l-2.035,0.218l-4.081,0.437c-1.356,0.162-2.771,0.232-4.163,0.324
				c-0.695,0.064-1.418-0.002-2.13,0.001l-2.155-0.043l0.267,0.019c-0.97,0.103-1.828,0.188-2.891,0.274l-2.844,0.084
				c-1.897,0.066-3.794,0.092-5.691,0.123c-1.897,0.028-3.797,0.074-5.685,0.073l-5.669-0.016l-5.655-0.023l-5.617-0.038
				l-5.623-0.075c-1.89,0.01-3.779,0.006-5.669-0.017l-5.613-0.083l-5.649,0.03l-11.361,0.003l-5.763-0.149l-2.876-0.106
				c-0.951-0.058-1.887-0.15-2.832-0.224l-5.654-0.531l-0.713-0.067c-0.184-0.021-0.421-0.041-0.678-0.059
				c-0.491-0.035-1.115-0.103-1.768-0.27c-0.338-0.11-0.691-0.239-1.02-0.407c-0.321-0.212-0.675-0.406-0.932-0.677
				c-0.245-0.272-0.539-0.551-0.701-0.843c-0.168-0.292-0.327-0.589-0.477-0.885l-0.892-1.771l1.948-0.458
				c0.228-0.054,0.414-0.083,0.715-0.167c0.061-0.036,1.135-0.267,1.235-0.201l0.104,0.002l0.052,0.001l0.241,0.012l0.025,0.003
				l0.201,0.028l0.401,0.057l0.804,0.113l3.226,0.427c2.147,0.363,4.34,0.341,6.52,0.463c2.18,0.146,4.375,0.017,6.567,0
				c2.188-0.032,4.389-0.175,6.585-0.321l6.603-0.498c2.206-0.172,4.417-0.415,6.626-0.561l6.638-0.449
				c2.216-0.132,4.425-0.183,6.639-0.234c4.432-0.111,8.838,0.066,13.249,0.296c4.397,0.243,8.8,0.553,13.181,0.917
				c2.191,0.166,4.388,0.409,6.572,0.599c2.186,0.179,4.371,0.409,6.559,0.649l6.585,0.698l3.294,0.407l0.823,0.108
				c0.274,0.052,0.624,0.1,0.895,0.189c0.582,0.169,1.055,0.383,1.589,0.574l0.201,0.072L446.607,103.409z"/>
		</g>
		<g>
			<path fill-rule="evenodd" clip-rule="evenodd" fill="#C1C1B5" d="M446.309,103.436c-5.094,1.807-10.383,0.358-15.552,0.944
				c6.819,1.357,13.767,0.789,20.646,1.185c13.4,0.774,26.751,2.022,40.106,3.286c2.539,0.238,5.081,0.518,7.58-0.629
				C481.549,105.689,464.019,103.593,446.309,103.436z"/>
			<path fill="#C1C1B5" d="M446.351,103.744c-0.577,0.304-1.161,0.585-1.744,0.869c-0.648,0.218-1.326,0.426-2.017,0.637
				c-0.67,0.139-1.344,0.26-2.026,0.39c-0.67,0.091-1.344,0.177-2.021,0.246c-1.333,0.112-2.644,0.203-3.914,0.282l-1.855,0.173
				l-1.764,0.269l0.185-4.429c1.351,0.136,2.688,0.279,4.058,0.335c1.36,0.074,2.739,0.113,4.132,0.12l4.219,0.039
				c1.431,0.01,2.861,0.069,4.319,0.171c1.45,0.103,2.916,0.266,4.388,0.503c1.417,0.233,2.832,0.51,4.247,0.764
				c2.831,0.522,5.661,1.047,8.503,1.405c2.842,0.382,5.695,0.541,8.552,0.745c2.858,0.182,5.726,0.232,8.601,0.232l4.315-0.008
				c1.439,0.002,2.881-0.022,4.319,0.001l2.126,0.031c0.673-0.006,1.326,0.009,1.914-0.049c1.199-0.084,2.187-0.317,3.043-0.77
				l0.761,5.269c-4.388-0.427-8.775-0.82-13.144-1.358c-4.369-0.431-8.716-1.036-13.06-1.731c-2.174-0.279-4.348-0.564-6.521-0.905
				l-3.263-0.506c-1.089-0.158-2.175-0.369-3.265-0.554c-2.18-0.269-4.362-0.605-6.551-0.947
				C450.717,104.6,448.538,104.23,446.351,103.744z M446.312,103.136c2.215-0.339,4.438-0.556,6.667-0.773
				c2.228-0.189,4.463-0.373,6.7-0.489c1.114-0.011,2.23-0.048,3.344-0.032l3.346,0.017c2.233,0.008,4.464,0.07,6.696,0.141
				c4.439,0.299,8.876,0.686,13.29,1.25c4.391,0.656,8.761,1.458,13.131,2.225l9.267,1.627l-8.506,3.642
				c-1.752,0.75-3.653,0.971-5.308,0.901c-0.843-0.027-1.618-0.119-2.37-0.236l-2.147-0.354c-1.41-0.236-2.817-0.52-4.228-0.778
				l-4.229-0.787c-2.822-0.519-5.651-0.988-8.491-1.326c-1.419-0.176-2.842-0.313-4.271-0.396c-1.428-0.092-2.856-0.16-4.289-0.18
				c-2.864-0.057-5.739,0.053-8.615,0.16l-8.497,0.279c-1.402,0.034-2.832,0.068-4.261,0.044c-1.445-0.007-2.889-0.083-4.36-0.159
				c-0.728-0.038-1.469-0.115-2.208-0.186c-0.738-0.063-1.475-0.143-2.219-0.271c-1.483-0.186-2.964-0.537-4.434-0.877
				l-19.133-4.426l19.318-0.003l2.142,0l2.059,0.162c1.338,0.158,2.636,0.334,3.911,0.534c0.627,0.073,1.259,0.168,1.893,0.259
				l1.881,0.161l1.852,0.044c0.661-0.061,1.32-0.125,1.987-0.164l0.018-0.001L446.312,103.136z"/>
		</g>
		<g>
			<path fill-rule="evenodd" clip-rule="evenodd" fill="#C1C1B5" d="M363.857,81.939c-0.014,0.774-0.027,1.55-0.041,2.327
				c3.57-1.685,7.14-3.373,10.711-5.06c0.839-0.396,1.91-0.797,1.32-1.962c-0.426-0.837-1.412-0.586-2.13-0.233
				C370.418,78.625,367.142,80.288,363.857,81.939z"/>
			<path fill="#C1C1B5" d="M364.431,82.284c0.069,0.086,0.144,0.165,0.203,0.251c0.147,0.196,0.278,0.393,0.387,0.589
				c0.245,0.392,0.442,0.784,0.609,1.174l-2.587-1.672c0.833-0.972,1.779-1.704,2.796-2.284c0.503-0.303,1.057-0.497,1.661-0.585
				c0.599-0.099,1.264-0.059,1.914-0.049c0.658,0.026,1.297,0.013,1.884-0.114c0.593-0.111,1.12-0.364,1.621-0.67
				c0.496-0.307,0.972-0.704,1.379-1.157c0.074-0.105,0.175-0.217,0.192-0.305c0.014-0.044,0.04-0.089,0.041-0.129
				c-0.018-0.034-0.037-0.061-0.056-0.083c-0.001-0.029-0.065-0.027-0.131-0.002c-0.069,0.027-0.094,0.043-0.177,0.113
				c-0.161,0.151-0.234,0.367-0.307,0.524c-0.026,0.234-0.087,0.27-0.113,0.348c-0.006,0.02-0.009,0.039-0.011,0.058l-0.001,0.014
				v0.007c-0.161-0.266,0.219,0.366,0.177,0.299l-0.006-0.004l-0.046-0.035l-0.181-0.14c-0.062-0.075,0.005,0.068,0.064,0.159
				c0.059,0.096,0.134,0.183,0.216,0.261c0.081,0.078,0.177,0.146,0.264,0.198c0.043,0.04,0.091,0.077,0.143,0.109
				c0.247,0.126,0.373,0.176,0.529,0.199c0.191,0.067,0.228,0.07,0.175,0.154c-0.033,0.042-0.027,0.067-0.122,0.141l-0.357,0.266
				c-0.952,0.709-1.947,1.332-3.063,1.709c-1.111,0.389-2.291,0.64-3.528,0.773C366.873,82.496,365.719,82.517,364.431,82.284z
				 M363.724,81.671c0.623-1.373,1.424-2.387,2.261-3.328c0.852-0.911,1.762-1.704,2.741-2.36c0.973-0.667,2.068-1.089,3.206-1.424
				l0.426-0.125c0.168-0.053,0.439-0.152,0.678-0.214c0.491-0.131,1.104-0.257,1.878-0.212c0.447,0.051,0.868,0.11,1.382,0.367
				c0.12,0.057,0.237,0.119,0.349,0.185c0.146,0.094,0.298,0.208,0.438,0.33c0.14,0.123,0.274,0.254,0.391,0.394
				c0.116,0.136,0.247,0.319,0.22,0.31l0.069,0.219l0.017,0.056l0.002,0.007c-0.039-0.064,0.342,0.572,0.183,0.312l0.009,0.033
				l0.018,0.065l0.064,0.263c0.075,0.353,0.139,0.658,0.087,1.19c-0.019,0.456-0.2,0.946-0.463,1.372
				c-0.126,0.209-0.274,0.323-0.422,0.471c-0.152,0.144-0.306,0.261-0.431,0.314c-0.132,0.07-0.265,0.134-0.396,0.192
				c-0.12,0.042-0.223,0.066-0.333,0.098c-0.229,0.071-0.396,0.077-0.582,0.104c-0.65,0.044-1.229,0.148-1.79,0.339
				c-0.555,0.193-1.084,0.439-1.547,0.827c-0.47,0.373-0.887,0.858-1.285,1.383c-0.406,0.508-0.797,1.047-1.254,1.447
				c-0.452,0.41-0.954,0.715-1.507,0.911c-1.095,0.418-2.261,0.684-3.541,0.709l-3.405,0.07l0.818-1.742
				c0.181-0.385,0.391-0.769,0.65-1.152c0.116-0.192,0.253-0.383,0.407-0.575c0.141-0.191,0.31-0.382,0.497-0.573l0.087-0.089
				L363.724,81.671z"/>
		</g>
		<g>
			<path fill-rule="evenodd" clip-rule="evenodd" fill="#C1C1B5" d="M505.976,108.772c-0.094-1.358-1.115-1.259-2.007-1.271
				c-0.94-0.013-1.833,0.021-1.844,1.398c-0.009,1.208,0.61,1.672,1.649,1.728C505.058,110.696,505.569,109.777,505.976,108.772z"/>
			<path fill="#C1C1B5" d="M505.136,108.681c-0.136-0.052-0.29-0.108-0.479-0.108c-0.159,0.072-0.25,0.175-0.309,0.304
				c-0.052,0.126-0.139,0.299-0.102,0.455c0.041,0.147,0.034,0.331,0.148,0.449c0.05,0.13,0.093,0.212,0.126,0.284
				c-0.046,0.071,0.012,0.101-0.109,0.129c-0.043,0.012-0.086,0.023-0.129,0.012c-0.072-0.008-0.152-0.025-0.229-0.068l-0.117-0.064
				c0.054-0.029-0.052-0.06-0.07-0.09l-0.236-0.249c-0.045-0.177-0.157-0.414-0.212-0.616c-0.148-0.416-0.333-0.701-0.32-0.61
				c-0.011,0.076,0.232,0.376,0.679,0.477c0.107,0.056,0.211,0.218,0.321,0.188c0.108-0.046,0.205-0.114,0.278-0.193
				c0.051-0.072,0.125-0.162,0.157-0.255c0.025-0.076,0.036-0.193,0.004-0.31c-0.109-0.454-0.535-0.783-0.552-0.908
				c-0.049-0.032-0.025-0.062-0.03-0.078c0-0.009-0.001-0.017-0.003-0.019l-0.002-0.004v0v0h-0.001
				c-0.653-0.002-0.179,0-0.323-0.001l0.029-0.002c0.079-0.006,0.158-0.001,0.236,0.006l0.117,0.018l0.059,0.014l-0.08,0.013
				c-0.121,0.021-0.236,0.071-0.337,0.135c-0.108,0.074-0.18,0.146-0.202,0.196c-0.078,0.112-0.103,0.276-0.089,0.373
				c0.017,0.131,0.085,0.253,0.169,0.304c0.07,0.065,0.214,0.156,0.336,0.167c0.118,0.02,0.262,0.065,0.409,0.066
				c0.155,0.003,0.299,0.005,0.428,0.008C504.868,108.707,505.011,108.691,505.136,108.681z M506.254,108.885
				c0,0,0.068,0.079,0.197,0.226c0.108,0.145,0.25,0.335,0.409,0.621c0.152,0.282,0.29,0.617,0.3,1.047
				c0.018,0.201,0.014,0.467-0.072,0.716c-0.058,0.249-0.179,0.539-0.371,0.834c-0.174,0.288-0.455,0.563-0.783,0.81
				c-0.277,0.255-0.867,0.476-1.376,0.599l-0.19,0.04l-0.057,0.019l-0.115,0.028c-0.077,0.014-0.155,0.025-0.234,0.025l-0.03,0.001
				l-0.339-0.002l-0.016-0.001l-0.03-0.004l-0.121-0.017c-0.082-0.011-0.163-0.027-0.244-0.045
				c-0.166-0.036-0.308-0.071-0.515-0.154c-0.666-0.234-1.742-0.898-2.283-1.893c-0.31-0.5-0.326-1-0.319-1.486
				c0.033-0.25,0.091-0.489,0.159-0.708c0.073-0.203,0.185-0.219,0.275-0.338c0.397-0.6,0.73-1.023,1.018-1.572
				c0.331-0.558,0.853-1.137,1.34-1.656c0.27-0.276,0.484-0.505,0.757-0.707l0.235-0.249c0.059-0.03,0.031-0.06,0.161-0.089
				l0.112-0.063c0.074-0.042,0.145-0.058,0.219-0.065c0.104-0.007,0.206,0.009,0.307,0.025c0.164,0.026,0.494,0.109,0.712,0.203
				c0.289,0.129,0.584,0.268,0.854,0.489c0.313,0.252,0.549,0.49,0.72,0.818c0.346,0.614,0.34,1.27,0.181,1.685
				c-0.216,0.293-0.421,0.384-0.567,0.517l-0.378,0.247L506.254,108.885z"/>
		</g>
	</g>
	<g>
		<g>
			<path fill-rule="evenodd" clip-rule="evenodd" d="M503.607,117.754c-55.263-0.184-110.638,3.237-165.418-7.241
				c-0.209,1.787,0.484,2.072,1.09,2.214c1.938,0.449,3.889,0.866,5.854,1.172C397.775,122.087,450.692,120.213,503.607,117.754z"/>
			<path d="M503.607,118.004c-3.455,0.245-6.911,0.448-10.366,0.626c-3.453,0.181-6.904,0.379-10.355,0.516
				c-3.453,0.168-6.906,0.326-10.36,0.443c-3.455,0.128-6.909,0.278-10.364,0.362l-10.371,0.273l-10.377,0.131
				c-3.461,0.037-6.923,0.018-10.384-0.012c-3.463-0.032-6.925-0.162-10.387-0.263c-3.462-0.149-6.922-0.355-10.381-0.545
				l-10.369-0.782l-10.353-0.921l-10.34-0.992l-10.332-1.045c-3.44-0.383-6.876-0.807-10.322-1.156
				c-3.433-0.451-6.868-0.899-10.314-1.292l-10.295-1.513l1.588-1.165c-0.015,0.321-0.01,0.683,0.047,0.755
				c0.004,0.041,0.015,0.037,0.01,0.011c-0.01,0-0.018-0.04-0.047-0.07c-0.042-0.018-0.032-0.054-0.068-0.056
				c0.025-0.007-0.01-0.005,0.061,0.006l2.447,0.409l2.583,0.431l0.646,0.107l0.162,0.027l0.04,0.006
				c-0.029-0.005,0.122,0.021-0.054-0.009l0.082,0.008l0.326,0.033l1.303,0.13l10.421,1.071l5.207,0.567l2.601,0.293l2.596,0.188
				l10.373,0.781c3.456,0.262,6.902,0.569,10.385,0.657l10.417,0.449l5.207,0.229l5.214,0.12l10.43,0.233
				c1.738,0.048,3.475,0.136,5.215,0.151l5.22,0.041c3.48,0.027,6.961,0.044,10.442,0.113c3.481,0.088,6.966,0.03,10.45,0.029
				l10.457,0.033l10.464-0.031c3.488-0.02,6.979-0.014,10.471,0.004l10.478,0.02c3.494,0.012,6.988,0.025,10.485,0.097
				L503.607,118.004z M503.619,118.004c-3.477,0.38-6.957,0.701-10.438,1.021c-3.481,0.319-6.961,0.667-10.446,0.926
				c-3.484,0.268-6.971,0.523-10.459,0.753c-3.489,0.225-6.974,0.514-10.468,0.658l-10.482,0.49
				c-3.496,0.13-6.989,0.317-10.49,0.359c-3.5,0.085-7,0.118-10.501,0.161l-5.251,0.064c-1.75,0.02-3.502-0.034-5.254-0.047
				l-10.508-0.247l-5.254-0.137l-5.25-0.333l-10.496-0.675c-3.496-0.18-6.996-0.588-10.493-0.948l-10.486-1.102l-2.619-0.283
				l-2.591-0.384l-5.174-0.809l-10.34-1.68l-1.292-0.214l-0.323-0.053l-0.081-0.014c-0.203-0.033-0.079-0.015-0.135-0.024
				l-0.04-0.009l-0.16-0.038l-0.638-0.149l-2.551-0.598l-1.275-0.298l-0.638-0.149l-0.319-0.075l-0.16-0.038
				c-0.186-0.044-0.188-0.052-0.29-0.081c-0.142-0.037-0.372-0.139-0.549-0.225c-0.208-0.134-0.418-0.246-0.591-0.443
				c-0.184-0.186-0.34-0.386-0.434-0.591c-0.119-0.213-0.195-0.417-0.23-0.593c-0.197-0.771-0.109-1.299-0.062-1.843l0.126-1.464
				l1.462,0.299l10.125,2.075c3.391,0.615,6.795,1.162,10.2,1.713c3.415,0.482,6.842,0.87,10.263,1.31
				c3.433,0.342,6.872,0.615,10.307,0.927l10.336,0.533l10.348,0.208l10.349,0.002c3.45-0.024,6.899-0.07,10.346-0.056
				c3.449-0.018,6.897-0.066,10.345-0.016c3.449-0.01,6.899-0.011,10.349,0.045c6.901,0.023,13.807,0.065,20.716,0.151
				c3.456,0.015,6.912,0.096,10.367,0.156c3.457,0.053,6.915,0.148,10.372,0.252c3.46,0.096,6.919,0.251,10.377,0.392
				c3.455,0.176,6.911,0.377,10.366,0.619L503.619,118.004z"/>
		</g>
		<g>
			<path fill-rule="evenodd" clip-rule="evenodd" d="M363.857,78.749c-12.348,4.918-24.043,11.482-36.985,14.887
				c-7.848,2.066-15.775,3.818-23.66,5.745c-0.992,0.241-2.45,0.051-2.758,1.236c-0.356,1.378,1.115,2.003,1.966,2.737
				c5.25,4.54,11.47,7.701,16.944,11.977c7.75,6.05,15.385,12.289,23.804,17.464c3.191,1.963,6.425,3.757,9.879,5.177
				c0.802,0.33,1.78,1.251,2.32-0.099c0.46-1.15-0.695-1.65-1.521-1.954c-3.27-1.207-6.237-2.948-9.201-4.757
				c-14.326-8.732-26.463-20.494-41.045-29.71c21.289-3.713,40.897-11.629,60.217-20.375
				C363.97,80.303,365.896,79.559,363.857,78.749z"/>
			<path d="M363.854,79.031l-10.966,5.68c-3.687,1.905-7.405,3.802-11.209,5.552c-3.83,1.711-7.715,3.36-11.785,4.601
				c-1.017,0.312-2.013,0.672-3.049,0.945l-3.016,0.773l-6.034,1.535c-2.009,0.518-4.022,1.023-6.044,1.492
				c-2.022,0.468-4.032,0.987-6.064,1.414l-1.521,0.333c-0.368,0.106-1.396,0.258-1.756,0.28c-0.128,0.011-0.171,0.024-0.247,0.034
				c-0.093,0.008-0.095,0.02-0.111,0.019c-0.048,0.001,0.016-0.007,0.063-0.045c0.014-0.035,0.127-0.089,0.188-0.18
				c0.049-0.108,0.11-0.146,0.133-0.23c0.006-0.02,0.01-0.04,0.011-0.06l0.001-0.03c-0.012,0.044,0.102-0.568,0.051-0.283
				l-0.028,0.192c-0.021,0.103-0.049,0.376-0.006,0.093c0.005-0.08-0.006-0.162-0.031-0.236c-0.013-0.037-0.028-0.072-0.047-0.104
				c-0.007-0.018-0.002-0.018-0.006-0.028c0.004-0.024-0.055-0.062-0.044-0.045c0.021,0.019,0.031,0.041,0.043,0.072
				c0.1,0.094,0.196,0.202,0.385,0.348l0.645,0.52l0.591,0.5l2.379,2.012l1.184,1.013l1.211,0.903l2.429,1.815l5.04,3.691
				c3.38,2.57,6.518,5.255,9.738,7.877l4.887,3.839c1.646,1.256,3.351,2.423,5.023,3.64c1.648,1.253,3.445,2.275,5.177,3.392
				c0.864,0.538,1.764,1.122,2.597,1.62l2.751,1.46c0.921,0.462,1.825,1.03,2.76,1.404l2.783,1.194l1.385,0.597l0.405,0.175
				c0.113,0.046,0.242,0.105,0.386,0.178c0.159,0.079,0.246,0.114,0.326,0.147c0.106,0.053,0.123,0.035,0.162,0.052
				c0.035,0.017,0.001-0.008-0.027-0.015c-0.031-0.009-0.049-0.001-0.092,0.002c-0.145-0.042-0.305,0.099-0.378,0.105
				c-0.044,0.021-0.083,0.056-0.109,0.097c-0.027,0.053-0.016-0.01-0.022-0.004c-0.001-0.011,0-0.019,0.003-0.025l0.009-0.009
				c0.015-0.039-0.117,0.367-0.057,0.17l0.01-0.047l0.04-0.191c0.003-0.035,0.053-0.204-0.001-0.077
				c-0.082,0.124,0.015,0.345-0.003,0.371c0.016,0.071,0.066,0.117,0.049,0.126c0.027,0.023,0,0.009-0.038-0.008
				c-0.057-0.036-0.213-0.105-0.387-0.168l-0.297-0.101l-0.421-0.156l-1.461-0.539c-0.481-0.163-0.982-0.383-1.489-0.617
				l-1.513-0.683c-0.961-0.48-1.917-0.957-2.846-1.466l-1.379-0.769l-0.727-0.412l-0.667-0.401c-1.782-1.08-3.559-2.109-5.315-3.276
				c-1.746-1.189-3.537-2.354-5.243-3.578l-5.074-3.691l-4.998-3.742c-3.3-2.517-6.613-4.982-9.93-7.408l-4.996-3.576l-5.092-3.382
				l-5.53-3.674l6.498-1.215l7.708-1.441c2.551-0.587,5.092-1.218,7.654-1.777l7.606-2.044l7.56-2.281
				c2.501-0.833,5-1.678,7.517-2.486l7.486-2.638c2.488-0.912,4.966-1.851,7.474-2.729l7.469-2.79l-0.276,0.348
				c0.147-0.466,0.398-0.642,0.583-0.839c0.192-0.182,0.376-0.351,0.464-0.485c0.039-0.068,0.057-0.094,0.051-0.126
				c0.009-0.031-0.03-0.104-0.102-0.17C364.224,79.236,364.04,79.131,363.854,79.031z M363.95,78.516
				c0.261,0.095,0.525,0.176,0.791,0.376c0.125,0.094,0.279,0.227,0.348,0.451c0.083,0.217,0.035,0.464-0.037,0.628
				c-0.149,0.333-0.343,0.537-0.496,0.743c-0.078,0.101-0.15,0.196-0.196,0.28c-0.031,0.045-0.04,0.08-0.054,0.113
				c-0.021,0.038,0,0.045-0.013,0.063l-0.205,0.311l-0.071,0.037l-7.088,3.694c-2.378,1.206-4.784,2.354-7.184,3.523
				c-2.421,1.125-4.864,2.203-7.302,3.302c-2.464,1.039-4.94,2.053-7.423,3.056c-2.515,0.924-5.02,1.888-7.551,2.78l-7.682,2.451
				c-2.593,0.723-5.203,1.39-7.811,2.071l-7.918,1.687l0.968-4.889l5.279,3.511l5.117,3.69c3.331,2.545,6.601,5.139,9.838,7.739
				l4.844,3.887l4.871,3.803c1.631,1.245,3.267,2.422,4.899,3.646c1.653,1.2,3.42,2.336,5.109,3.533l0.641,0.443l0.604,0.395
				l1.291,0.833l2.58,1.587l1.272,0.706c0.417,0.24,0.848,0.477,1.336,0.688l1.413,0.656c0.093,0.044,0.291,0.132,0.298,0.141
				c0.143,0.063,0.271,0.111,0.426,0.186c0.301,0.145,0.618,0.299,0.975,0.576c0.175,0.133,0.351,0.279,0.534,0.514
				c0.177,0.19,0.334,0.472,0.449,0.785c0.131,0.251,0.158,0.755,0.125,1.13c-0.024,0.258-0.04,0.211-0.059,0.303l-0.055,0.187
				l-0.101,0.309l-0.085,0.162l-0.183,0.316c-0.078,0.111-0.098,0.187-0.23,0.32c-0.123,0.126-0.258,0.247-0.4,0.354
				c-0.241,0.227-0.701,0.345-1.081,0.401c-0.303,0.005-0.69-0.043-0.885-0.12c-0.203-0.072-0.438-0.161-0.56-0.235
				c-0.153-0.08-0.299-0.158-0.369-0.203c-0.083-0.053-0.186-0.11-0.309-0.171l-0.298-0.158l-1.429-0.735l-2.844-1.47
				c-0.962-0.473-1.784-1.079-2.683-1.612l-2.643-1.65l-2.608-1.796c-1.717-1.192-3.469-2.333-5.126-3.596
				c-3.369-2.46-6.685-4.968-9.997-7.481l-4.996-3.72l-1.252-0.924l-1.284-0.847l-2.561-1.689c-1.741-1.105-3.543-2.107-5.332-3.197
				l-2.73-1.67l-1.368-0.84l-1.273-0.899l-2.534-1.813l-0.635-0.459l-0.602-0.412c-0.235-0.155-0.528-0.389-0.817-0.64
				c-0.161-0.163-0.319-0.337-0.469-0.513c-0.153-0.184-0.308-0.469-0.438-0.714c-0.033-0.067-0.064-0.122-0.096-0.2l-0.087-0.294
				c-0.052-0.201-0.09-0.41-0.112-0.617c-0.047-0.535-0.007-0.521-0.006-0.676l0.014-0.194c-0.045,0.254,0.063-0.394,0.069-0.377
				l0.04-0.119l0.089-0.238c0.134-0.317,0.257-0.62,0.515-0.896c0.237-0.281,0.511-0.545,0.769-0.685
				c0.27-0.172,0.556-0.317,0.763-0.377c0.23-0.083,0.474-0.159,0.638-0.188c0.179-0.038,0.389-0.084,0.519-0.101
				c0.669-0.108,0.673-0.086,1.306-0.264l1.504-0.402c2-0.553,4.025-1.014,6.036-1.525c2.012-0.511,4.032-0.984,6.056-1.446
				l6.067-1.404l3.035-0.695c0.982-0.209,1.957-0.513,2.937-0.764c1.968-0.485,3.901-1.134,5.841-1.771
				c1.945-0.613,3.866-1.354,5.805-2.029l11.579-4.494c3.881-1.502,7.817-2.936,11.792-4.152l0.104-0.032L363.95,78.516z"/>
		</g>
		<g>
			<path fill-rule="evenodd" clip-rule="evenodd" d="M446.309,100.245c-0.78-0.153-1.562-0.434-2.344-0.44
				c-24.761-0.237-49.478-2.742-74.26-1.68c-9.048,0.388-18.072,0.953-27.102-0.159c-0.468-0.058-0.976,0.223-1.766,0.425
				c1.035,2.212,2.929,1.834,4.469,1.927c11.582,0.71,23.166,0.029,34.743-0.187c15.996-0.297,31.942,0.791,47.913,1.153
				c0.931,0.021,1.862-0.061,2.793-0.097c4.803,0.699,9.628,0.167,14.44,0.277C445.979,101.482,446.381,101.054,446.309,100.245z"/>
			<path d="M446.026,100.462c-0.472-0.056-0.96-0.137-1.399-0.162c-0.269-0.022-0.483,0.003-0.759,0.012l-0.827,0.061l-3.306,0.219
				c-2.206,0.106-4.404,0.274-6.614,0.299c-2.209,0.058-4.421,0.107-6.632,0.114c-2.212,0.016-4.412,0.023-6.617-0.019l-6.606-0.102
				l-6.596-0.202c-2.196-0.044-4.39-0.113-6.583-0.216l-6.573-0.344c-2.189-0.103-4.381-0.325-6.57-0.425l-6.573-0.405
				c-2.194-0.16-4.385-0.154-6.581-0.224c-2.193-0.051-4.392-0.054-6.595-0.018l-6.608,0.191c-2.208,0.079-4.411,0.178-6.629,0.169
				c-2.216-0.004-4.433,0.121-6.66-0.028l-3.345-0.133l-0.838-0.027l-0.42-0.014l-0.209-0.007l-0.026-0.001
				c0.35,0.018,0.083,0.006,0.154,0.011l-0.051,0.004l-0.103,0.009c-0.062,0.008-0.154,0.009-0.19,0.021
				c-0.008,0.018-0.015,0.032-0.023,0.042c-0.014,0.012,0,0.009-0.039,0.023l-0.187,0.071c-0.226,0.092-0.558,0.2-0.85,0.3
				l0.877-1.856c0.378,0.596,0.665,0.809,1.214,0.893c0.307,0.032,0.651,0.046,1.109,0.026l1.438-0.031l5.676-0.083
				c0.944-0.01,1.895,0,2.834-0.026l2.8-0.117l5.591-0.183l11.313-0.525l5.682-0.238c1.982-0.046,3.805-0.072,5.716-0.08
				c1.89-0.018,3.779-0.02,5.669-0.011c1.89-0.003,3.805,0.112,5.705,0.173l5.709,0.25c1.909,0.073,3.784,0.219,5.675,0.341
				c3.773,0.238,7.554,0.514,11.312,0.788l5.646,0.428l2.824,0.233l2.785,0.054l0.141,0.003l0.082,0.012l1.944,0.298
				c0.654,0.084,1.293,0.24,1.968,0.267c1.343,0.078,2.667,0.24,4.041,0.292c1.364,0.067,2.726,0.135,4.108,0.258l2.059,0.172
				c0.078,0.014,0.378,0.032,0.425,0.014c0.095,0.005,0.206-0.042,0.283-0.09C445.928,100.873,445.994,100.684,446.026,100.462z
				 M446.558,100.223c0.056,0.359,0.071,0.841-0.28,1.222c-0.172,0.18-0.374,0.308-0.616,0.368c-0.283,0.077-0.332,0.07-0.592,0.097
				l-2.038,0.182l-4.083,0.374c-1.357,0.142-2.764,0.192-4.152,0.268c-0.693,0.056-1.409-0.019-2.116-0.023l-2.136-0.067
				l0.223,0.015l-2.881,0.245l-2.842,0.056l-5.687,0.073l-5.682,0.029l-5.669-0.048l-11.282-0.108
				c-1.878-0.019-3.74-0.08-5.63-0.084c-1.89,0.008-3.78,0.005-5.669-0.014l-5.623-0.069l-5.652,0.049l-11.356,0.05l-5.747-0.119
				l-2.869-0.086c-0.949-0.051-1.888-0.136-2.832-0.202l-5.656-0.476l-1.395-0.112c-0.488-0.03-1.086-0.093-1.708-0.247
				c-0.319-0.103-0.651-0.222-0.961-0.378c-0.3-0.199-0.633-0.375-0.874-0.63c-0.229-0.256-0.507-0.513-0.663-0.791
				c-0.16-0.277-0.313-0.558-0.458-0.839l-0.749-1.453l1.625-0.404c0.235-0.059,0.435-0.095,0.729-0.181
				c0.095-0.043,1.033-0.254,1.164-0.198l0.104,0.001l0.051,0l0.206,0.01l0.025,0.003l0.202,0.026l0.403,0.053l0.807,0.105
				l3.236,0.4c2.154,0.343,4.35,0.313,6.532,0.424c2.184,0.133,4.38,0.007,6.572-0.015c2.191-0.035,4.391-0.172,6.588-0.31
				c2.193-0.187,4.396-0.287,6.603-0.451c2.205-0.149,4.414-0.371,6.622-0.49l6.632-0.371c2.213-0.108,4.421-0.144,6.633-0.167
				c2.211-0.011,4.424-0.042,6.627,0.042c2.206,0.064,4.41,0.161,6.613,0.282l6.597,0.382l6.586,0.478
				c2.193,0.14,4.39,0.366,6.577,0.536c2.188,0.162,4.375,0.367,6.565,0.58l6.587,0.608l3.295,0.35l0.824,0.094
				c0.272,0.047,0.611,0.089,0.882,0.173c0.575,0.159,1.056,0.365,1.593,0.535l0.169,0.053L446.558,100.223z"/>
		</g>
		<g>
			<path fill-rule="evenodd" clip-rule="evenodd" d="M446.309,100.245c-5.093,1.807-10.383,0.359-15.552,0.944
				c6.82,1.358,13.768,0.791,20.646,1.187c13.401,0.774,26.751,2.022,40.105,3.286c2.54,0.239,5.082,0.517,7.581-0.629
				C481.549,102.498,464.019,100.403,446.309,100.245z"/>
			<path d="M446.343,100.5c-0.586,0.283-1.177,0.547-1.768,0.813c-0.647,0.199-1.319,0.388-2.002,0.58l-2.015,0.344
				c-0.667,0.076-1.337,0.147-2.01,0.199c-1.328,0.069-2.638,0.166-3.914,0.219l-1.873,0.145l-1.795,0.247l0.155-3.691
				c1.361,0.153,2.71,0.313,4.089,0.381c1.371,0.088,2.758,0.133,4.157,0.148l4.23,0.049c1.431,0.012,2.861,0.063,4.314,0.154
				c1.446,0.084,2.905,0.246,4.37,0.456c1.419,0.2,2.835,0.457,4.253,0.683c2.834,0.47,5.668,0.941,8.512,1.274
				c2.843,0.356,5.697,0.513,8.553,0.731c2.858,0.172,5.72,0.293,8.592,0.323l8.619,0.125c1.439,0.038,2.862,0.103,4.08,0.041
				c1.238-0.072,2.301-0.316,3.232-0.789l0.633,4.391l-6.576-0.686c-2.188-0.251-4.382-0.461-6.565-0.746
				c-2.187-0.219-4.369-0.472-6.548-0.763c-1.09-0.139-2.179-0.285-3.267-0.447c-1.088-0.161-2.178-0.304-3.264-0.485
				c-2.177-0.282-4.358-0.522-6.536-0.838c-2.178-0.311-4.36-0.607-6.541-0.971c-2.185-0.237-4.372-0.53-6.563-0.827
				C450.718,101.24,448.534,100.919,446.343,100.5z M447.783,99.861c1.727-0.179,3.454-0.341,5.188-0.472
				c2.225-0.145,4.456-0.285,6.688-0.369c2.225-0.015,4.449,0.038,6.677,0.075c2.228,0.033,4.452,0.141,6.682,0.209
				c1.109,0.068,2.215,0.172,3.323,0.26c1.107,0.086,2.214,0.188,3.32,0.298c2.213,0.206,4.423,0.449,6.627,0.729
				c2.195,0.313,4.382,0.7,6.572,1.046l6.56,1.106l7.73,1.304l-7.097,3.087c-1.677,0.729-3.504,0.939-5.118,0.882
				c-1.646-0.039-3.069-0.326-4.479-0.531l-8.472-1.434c-2.825-0.489-5.66-0.888-8.5-1.235c-1.42-0.17-2.844-0.303-4.272-0.388
				c-1.427-0.095-2.855-0.168-4.287-0.202c-2.862-0.082-5.734-0.025-8.605,0.03c-1.435,0.019-2.873,0.068-4.306,0.06l-0.538,0
				c-0.078,0.002-0.207-0.003-0.241,0.004l-0.263,0.009l-1.052,0.035l-2.108,0.042c-2.818,0.058-5.689,0.048-8.615-0.124
				c-0.726-0.034-1.463-0.107-2.197-0.174c-0.734-0.06-1.467-0.133-2.206-0.255c-1.473-0.175-2.943-0.509-4.403-0.832l-15.913-3.521
				l16.068-0.17l2.109-0.022l2.042,0.134c1.333,0.132,2.631,0.314,3.911,0.471c0.632,0.056,1.267,0.137,1.904,0.213l1.893,0.114
				l1.866-0.013c0.655-0.08,1.31-0.163,1.97-0.224L447.783,99.861z"/>
		</g>
		<g>
			<path fill-rule="evenodd" clip-rule="evenodd" d="M363.857,78.749c-0.014,0.774-0.027,1.552-0.041,2.327
				c3.57-1.685,7.14-3.371,10.711-5.059c0.839-0.397,1.91-0.798,1.32-1.961c-0.426-0.839-1.412-0.586-2.13-0.235
				C370.418,75.436,367.142,77.098,363.857,78.749z"/>
			<path d="M364.256,78.997c0.218,0.315,0.42,0.618,0.567,0.932c0.203,0.392,0.366,0.782,0.504,1.172l-2.155-1.393
				c0.871-0.892,1.833-1.589,2.86-2.149c0.505-0.297,1.057-0.497,1.646-0.616c0.587-0.124,1.229-0.132,1.859-0.166
				c0.637-0.02,1.258-0.073,1.834-0.219c0.579-0.144,1.11-0.385,1.615-0.683c0.5-0.297,0.987-0.669,1.412-1.088
				c0.084-0.099,0.19-0.202,0.225-0.289c0.022-0.043,0.054-0.086,0.065-0.127l-0.018-0.092c0.009-0.032-0.036-0.04-0.084-0.028
				c-0.051,0.013-0.062,0.018-0.127,0.064c-0.126,0.103-0.178,0.26-0.243,0.367c-0.02,0.17-0.082,0.178-0.111,0.221l-0.016,0.031
				l-0.002,0.008l-0.001,0.004c-0.132-0.219,0.18,0.301,0.146,0.245l-0.006-0.004l-0.043-0.037l-0.171-0.146
				c-0.054-0.069-0.002,0.051,0.042,0.122c0.044,0.076,0.102,0.145,0.166,0.206c0.063,0.061,0.138,0.114,0.204,0.154
				c0.031,0.031,0.065,0.06,0.102,0.084c0.184,0.095,0.264,0.135,0.37,0.152c0.111,0.058,0.092,0.071,0.003,0.159
				c-0.05,0.043-0.071,0.077-0.167,0.146l-0.363,0.254c-0.967,0.678-1.974,1.276-3.076,1.684c-1.1,0.412-2.256,0.709-3.461,0.907
				C366.697,79.035,365.538,79.133,364.256,78.997z M363.746,78.524c0.693-1.23,1.535-2.163,2.407-3.034
				c0.884-0.847,1.817-1.594,2.807-2.227c0.988-0.636,2.071-1.083,3.193-1.449l1.054-0.346c0.454-0.127,1.012-0.242,1.706-0.207
				c0.397,0.045,0.772,0.095,1.223,0.32c0.317,0.076,1.104,0.772,1.224,1.058l0.078,0.213l0.019,0.053l0.002,0.007
				c-0.032-0.052,0.282,0.472,0.151,0.257l0.008,0.03l0.017,0.059l0.06,0.237c0.071,0.317,0.135,0.593,0.09,1.063
				c-0.011,0.405-0.171,0.837-0.399,1.215c-0.109,0.187-0.242,0.289-0.372,0.423c-0.134,0.13-0.27,0.236-0.384,0.288l-0.359,0.183
				l-0.309,0.1c-0.211,0.072-0.373,0.087-0.549,0.121c-0.631,0.081-1.201,0.207-1.756,0.409c-0.551,0.2-1.076,0.458-1.554,0.813
				c-0.479,0.352-0.915,0.798-1.334,1.277c-0.426,0.465-0.84,0.956-1.31,1.331c-0.466,0.379-0.971,0.679-1.521,0.881
				c-1.085,0.437-2.236,0.737-3.477,0.843l-2.799,0.239l0.643-1.632c0.152-0.385,0.329-0.77,0.545-1.154
				c0.197-0.385,0.452-0.768,0.756-1.15l0.052-0.065L363.746,78.524z"/>
		</g>
		<g>
			<path fill-rule="evenodd" clip-rule="evenodd" d="M505.975,105.581c-0.093-1.357-1.114-1.257-2.006-1.27
				c-0.94-0.014-1.832,0.019-1.844,1.397c-0.008,1.209,0.61,1.672,1.648,1.728C505.057,107.506,505.569,106.586,505.975,105.581z"/>
			<path d="M505.404,105.525c-0.154-0.051-0.353-0.162-0.554-0.188c-0.126,0.046-0.21,0.119-0.266,0.213
				c-0.047,0.09-0.136,0.225-0.115,0.341c0.024,0.107-0.002,0.256,0.078,0.344c0.021,0.101,0.038,0.164,0.043,0.219
				c-0.067,0.085-0.172,0.175-0.532,0.053l-0.117-0.054c0.033-0.024-0.058-0.05-0.08-0.075l-0.236-0.208
				c-0.084-0.166-0.169-0.334-0.256-0.506c-0.176-0.338-0.388-0.551-0.404-0.422c-0.033,0.116,0.161,0.428,0.538,0.568
				c0.091,0.061,0.176,0.211,0.271,0.2c0.094-0.024,0.178-0.066,0.242-0.117c0.117-0.109,0.21-0.208,0.174-0.394
				c-0.056-0.333-0.357-0.583-0.318-0.674c-0.029-0.017,0.007-0.051,0.016-0.06c0.007-0.007,0.013-0.012,0.018-0.013l0.009-0.002
				h0.002h0.001c-0.119,0,0.269,0.001-0.268,0l0.003,0l0.03-0.001c0.079-0.006,0.158-0.002,0.236,0.003l0.117,0.015l0.058,0.011
				l-0.06,0.008c-0.42,0.103-0.455,0.387-0.396,0.528c0.03,0.096,0.104,0.183,0.187,0.209c0.071,0.039,0.202,0.1,0.313,0.093
				c0.108,0.001,0.238,0.025,0.367,0.012c0.124-0.012,0.239-0.028,0.376-0.032C505.098,105.584,505.265,105.547,505.404,105.525z
				 M506.206,105.675c0,0,0.055,0.072,0.157,0.207c0.084,0.133,0.195,0.311,0.316,0.571c0.115,0.259,0.218,0.566,0.205,0.954
				c0.006,0.183-0.009,0.419-0.094,0.642c-0.06,0.224-0.176,0.479-0.354,0.739c-0.339,0.493-0.917,1.004-1.928,1.233l-0.342,0.076
				c-0.077,0.012-0.155,0.022-0.235,0.023l-0.03,0.001l-0.293-0.002l-0.027-0.004l-0.111-0.016c-0.074-0.01-0.148-0.023-0.223-0.04
				c-0.153-0.029-0.282-0.068-0.47-0.136c-0.61-0.2-1.563-0.784-2.05-1.658c-0.277-0.438-0.301-0.882-0.305-1.314
				c0.024-0.222,0.068-0.436,0.122-0.631c0.058-0.184,0.151-0.212,0.226-0.326c0.326-0.561,0.612-0.971,0.875-1.48
				c0.302-0.518,0.795-1.026,1.256-1.468c0.251-0.236,0.458-0.426,0.712-0.596l0.236-0.208c0.055-0.025,0.041-0.05,0.151-0.075
				l0.112-0.052c0.245-0.123,0.715-0.017,1.171,0.143c0.262,0.112,0.529,0.233,0.771,0.423c0.278,0.221,0.496,0.424,0.649,0.712
				c0.321,0.535,0.313,1.115,0.211,1.48c-0.14,0.264-0.347,0.366-0.472,0.491l-0.301,0.228L506.206,105.675z"/>
		</g>
	</g>
	<g>
		<path d="M584.49,98.258c0,1.958-0.989,2.937-2.967,2.937c-0.686,0-1.225-0.245-1.615-0.734c-0.275-0.451-0.559-0.911-0.852-1.381
			c-1.215-1.566-2.83-2.35-4.847-2.35c-3.466,0-5.198,1.968-5.198,5.904c0,1.371,0.313,2.545,0.939,3.524
			c0.528,0.842,1.479,1.792,2.849,2.849c3.094,2.369,5.022,4.004,5.786,4.905c1.605,1.841,2.408,3.956,2.408,6.344
			c0,3.133-1.018,5.684-3.055,7.651c-2.036,1.968-4.689,2.952-7.959,2.952c-3.113,0-5.669-0.812-7.666-2.438
			c-1.938-1.566-2.908-3.543-2.908-5.933c0-2.409,1.043-3.613,3.129-3.613c1.752,0,2.657,1.341,2.717,4.024
			c1.404,1.684,2.986,2.526,4.744,2.526c1.463,0,2.658-0.445,3.586-1.336c0.928-0.891,1.392-2.002,1.392-3.333
			c0-1.214-0.568-2.359-1.704-3.437c-0.02-0.039-1.459-1.185-4.316-3.437c-3.956-3.133-5.934-6.804-5.934-11.014
			c0-3.426,1.053-6.197,3.157-8.312s4.86-3.172,8.269-3.172c2.799,0,5.198,0.734,7.195,2.203
			C583.54,94.979,584.49,96.536,584.49,98.258z"/>
		<path d="M597.442,129.715c0,1.332-0.088,2.242-0.265,2.731c-0.332,0.861-1.064,1.292-2.195,1.292c-1.85,0-2.94-1.508-3.271-4.523
			c-0.565-5.091-0.848-12.062-0.848-20.913c0-9.888,0.137-15.968,0.409-18.239c0.312-2.487,1.296-3.73,2.951-3.73
			c1.95,0,2.925,1.185,2.925,3.554c0,0.587-0.107,2.922-0.322,7.005c-0.217,4.083-0.324,7.847-0.324,11.293
			c0,3.016,0.157,6.917,0.471,11.704C597.285,124.678,597.442,127.953,597.442,129.715z"/>
		<path d="M613.186,96.731c0,11.807-0.421,20.531-1.263,26.17c-0.333,2.271-0.705,3.799-1.116,4.582
			c-0.529,1.038-1.381,1.557-2.555,1.557c-0.784,0-1.449-0.259-1.998-0.778c-0.549-0.519-0.822-1.141-0.822-1.865
			c0,0.098,0.156-0.577,0.471-2.027c0.371-1.645,0.675-3.514,0.91-5.61c0.313-2.976,0.47-6.305,0.47-9.986
			c0-1.605-0.021-3.299-0.06-5.082c-0.039-1.781-0.059-2.75-0.059-2.908c0-2.644,0.226-4.483,0.676-5.521
			c0.471-1.136,1.352-1.704,2.644-1.704C612.285,93.559,613.186,94.616,613.186,96.731z M614.449,85.541
			c0,2.781-1.361,4.171-4.083,4.171c-1.097,0-2.022-0.382-2.776-1.146s-1.131-1.684-1.131-2.761c0-1.175,0.412-2.174,1.234-2.996
			s1.83-1.233,3.025-1.233c1.115,0,2.016,0.362,2.702,1.086C614.105,83.387,614.449,84.347,614.449,85.541z"/>
		<path d="M651.309,126.337c0,2.369-3.428,3.554-10.286,3.554c-5.585,0-11.608-1.527-18.075-4.582
			c-0.526,0.725-1.141,1.087-1.842,1.087c-0.703,0-1.308-0.284-1.814-0.852s-0.76-1.263-0.76-2.085c0-1.449,1.439-4.142,4.317-8.077
			c6.456-8.772,12.414-15.43,17.872-19.973c-5.42-0.92-10.136-1.38-14.146-1.38h-2.466c-2.954,0-4.433-0.92-4.433-2.761
			c0-1.919,1.625-2.878,4.877-2.878c5.325,0,10.72,0.48,16.184,1.439c5.775,1.019,8.664,2.664,8.664,4.935
			c0,0.686-0.323,1.292-0.97,1.821c-0.862,0.587-1.724,1.185-2.585,1.792c-5.563,3.838-12.301,11.23-20.215,22.175
			c4.74,2.526,9.872,3.789,15.396,3.789c1.45,0,2.962-0.127,4.539-0.382c1.577-0.254,2.434-0.382,2.571-0.382
			C650.252,123.576,651.309,124.497,651.309,126.337z"/>
		<path d="M678.684,112.269c0,5.365-0.783,10.975-2.35,16.83c-0.783,2.937-1.949,4.406-3.496,4.406
			c-1.586,0-2.379-0.901-2.379-2.702c0-0.411,0.02-0.715,0.059-0.911c-1.996,1.077-4.063,1.615-6.197,1.615
			c-3.779,0-6.73-1.067-8.855-3.201c-2.125-2.134-3.187-5.12-3.187-8.958c0-3.896,1.146-6.985,3.437-9.267
			c2.291-2.281,5.336-3.421,9.135-3.421c3.309,0,6.1,1.106,8.371,3.319c-0.373-7.734-3.241-11.602-8.606-11.602
			c-1.194,0-2.472,0.357-3.833,1.072c-1.361,0.715-2.246,1.072-2.658,1.072c-0.666,0-1.263-0.274-1.791-0.822
			c-0.529-0.548-0.793-1.175-0.793-1.88c0-1.175,0.852-2.262,2.555-3.26c1.821-1.077,3.994-1.615,6.521-1.615
			C673.994,92.942,678.684,99.385,678.684,112.269z M672.721,119.171c0-4.974-2.34-7.46-7.02-7.46c-5.131,0-7.695,2.467-7.695,7.401
			c0,4.974,2.545,7.46,7.637,7.46c2.213,0,3.945-0.651,5.199-1.953C672.094,123.317,672.721,121.501,672.721,119.171z"/>
		<path d="M711.755,112.269c0,5.365-0.783,10.975-2.35,16.83c-0.783,2.937-1.948,4.406-3.495,4.406
			c-1.586,0-2.379-0.901-2.379-2.702c0-0.411,0.02-0.715,0.059-0.911c-1.997,1.077-4.063,1.615-6.197,1.615
			c-3.779,0-6.73-1.067-8.855-3.201c-2.125-2.134-3.188-5.12-3.188-8.958c0-3.896,1.146-6.985,3.438-9.267
			c2.291-2.281,5.335-3.421,9.135-3.421c3.309,0,6.099,1.106,8.37,3.319c-0.372-7.734-3.241-11.602-8.606-11.602
			c-1.193,0-2.472,0.357-3.832,1.072c-1.361,0.715-2.247,1.072-2.658,1.072c-0.666,0-1.264-0.274-1.792-0.822
			s-0.793-1.175-0.793-1.88c0-1.175,0.853-2.262,2.556-3.26c1.82-1.077,3.994-1.615,6.52-1.615
			C707.065,92.942,711.755,99.385,711.755,112.269z M705.793,119.171c0-4.974-2.34-7.46-7.02-7.46c-5.131,0-7.695,2.467-7.695,7.401
			c0,4.974,2.545,7.46,7.637,7.46c2.212,0,3.945-0.651,5.198-1.953S705.793,121.501,705.793,119.171z"/>
	</g>
	<g>
		<path d="M56.406,88.107c0,4.449-0.613,7.927-1.84,10.434c-1.184,2.4-2.779,3.601-4.785,3.601c-1.024,0-1.907-0.314-2.648-0.945
			c-0.741-0.629-1.112-1.316-1.112-2.063c0-0.448,0.146-0.824,0.44-1.128c0.293-0.304,0.659-0.456,1.096-0.456
			c0.512,0,0.915,0.275,1.208,0.824c0.293,0.549,0.59,0.824,0.888,0.824c0.885,0,1.68-0.912,2.384-2.736
			c0.768-1.995,1.152-4.502,1.152-7.521c0-1.312-0.109-2.837-0.328-4.577c-0.219-1.739-0.328-2.806-0.328-3.2
			c0-1.11,0.469-1.665,1.408-1.665s1.59,0.683,1.953,2.048C56.235,82.805,56.406,84.992,56.406,88.107z M55.526,74.057
			c0,0.662-0.232,1.219-0.696,1.672c-0.464,0.454-1.032,0.68-1.704,0.68c-0.576,0-1.118-0.221-1.625-0.664s-0.76-0.92-0.76-1.432
			c0-0.693,0.242-1.275,0.728-1.745c0.485-0.469,1.08-0.704,1.784-0.704C54.768,71.864,55.526,72.595,55.526,74.057z"/>
		<path d="M90.955,100.774c0,2-2.272,3.166-6.817,3.496l-0.032-0.033h-0.112c-1.387,0-3.003-0.291-4.849-0.875
			c-0.939-0.299-2.763-0.982-5.473-2.057c-0.928-0.371-1.846-0.557-2.752-0.557c-1.504,0-2.958,0.131-4.36,0.393
			c-1.403,0.262-2.078,0.391-2.024,0.391c-1.024,0-1.536-0.49-1.536-1.471c0-0.737,0.458-1.281,1.376-1.633
			c0.448-0.182,1.811-0.457,4.089-0.826c2.277-0.368,4.334-0.895,6.169-1.578c5.174-1.923,7.761-5.412,7.761-10.465
			c0-2.34-0.72-4.364-2.161-6.074c-1.696-2.02-3.862-3.029-6.497-3.029c-3.275,0-5.814,0.914-7.617,2.742
			c-1.803,1.828-2.704,4.42-2.704,7.776c0,2.458,0.709,4.185,2.128,5.179c0.373,0.267,0.816,0.454,1.328,0.561
			c0.426,0.064,0.848,0.134,1.264,0.208c1.077,0.213,1.616,0.736,1.616,1.568c0,1.109-0.79,1.664-2.368,1.664
			c-0.907,0-1.846-0.229-2.817-0.688s-1.792-1.067-2.464-1.826c-1.302-1.516-1.952-3.608-1.952-6.277
			c0-4.334,1.232-7.761,3.697-10.281s5.761-3.779,9.889-3.779c2.987,0,5.468,0.774,7.441,2.322c3.041,2.392,4.561,5.77,4.561,10.136
			c0,6.288-3.286,10.638-9.857,13.05c3.553,1.536,6.235,2.304,8.049,2.304c1.558,0,2.816-0.244,3.777-0.734v-0.32
			c0.661-0.833,1.227-1.249,1.696-1.249c0.171,0,0.347,0.053,0.528,0.16C90.614,99.376,90.955,99.978,90.955,100.774z"/>
		<path d="M116.416,100.7c0,1.047-0.501,1.568-1.502,1.568c-0.704,0-1.476-0.656-2.318-1.967c-0.619-0.972-1.626-2.902-3.024-5.794
			c-4.077-0.064-8.687-1.013-13.83-2.848c-4.097,4.278-6.887,6.417-8.37,6.417c-0.384,0-0.721-0.141-1.008-0.424
			c-0.288-0.282-0.432-0.621-0.432-1.016c0-0.437,0.354-0.936,1.064-1.496s1.416-1.118,2.12-1.672c1.206-0.96,2.353-2,3.441-3.121
			c-1.835-0.725-2.752-1.472-2.752-2.24c0-0.438,0.144-0.813,0.432-1.128c0.288-0.315,0.634-0.472,1.04-0.472
			c0.331,0,0.816,0.149,1.456,0.446c1.131,0.511,1.803,0.808,2.017,0.894c4.299-5.641,6.715-9.757,7.249-12.35
			c0.149-0.885,0.304-1.776,0.464-2.672c0.213-0.662,0.715-0.992,1.504-0.992c0.65,0,1.088,0.272,1.312,0.816
			c0.128,0.32,0.235,0.806,0.32,1.457c0.096,0.8,0.187,1.36,0.272,1.68c1.014,4.125,2.977,9.31,5.889,15.554
			c0.49-0.01,0.965-0.037,1.424-0.08l0.64-0.048c1.185,0,1.776,0.536,1.776,1.608c0,1.104-0.613,1.657-1.84,1.657h-0.464
			c0.416,0.854,1.136,2.16,2.16,3.92C116.095,99.506,116.416,100.274,116.416,100.7z M108.068,91.308
			c-1.717-3.717-3.206-7.652-4.464-11.806c-1.537,3.442-3.448,6.627-5.733,9.557C101.19,90.271,104.589,91.021,108.068,91.308z"/>
		<path d="M131.266,81.37c0,1.067-0.539,1.6-1.616,1.6c-0.374,0-0.667-0.133-0.88-0.4c-0.149-0.246-0.304-0.496-0.464-0.752
			c-0.662-0.853-1.542-1.28-2.641-1.28c-1.888,0-2.833,1.072-2.833,3.217c0,0.747,0.171,1.387,0.512,1.92
			c0.288,0.458,0.806,0.976,1.552,1.552c1.686,1.291,2.736,2.182,3.152,2.672c0.875,1.003,1.313,2.155,1.313,3.457
			c0,1.707-0.555,3.096-1.665,4.168c-1.109,1.072-2.555,1.608-4.336,1.608c-1.696,0-3.088-0.443-4.177-1.328
			c-1.056-0.854-1.584-1.931-1.584-3.232c0-1.313,0.568-1.969,1.705-1.969c0.954,0,1.447,0.731,1.479,2.192
			c0.766,0.918,1.627,1.376,2.585,1.376c0.797,0,1.449-0.243,1.954-0.728s0.758-1.091,0.758-1.816c0-0.662-0.31-1.286-0.928-1.873
			c-0.011-0.021-0.794-0.645-2.352-1.872c-2.155-1.707-3.232-3.707-3.232-6.001c0-1.867,0.573-3.376,1.72-4.529
			c1.146-1.152,2.648-1.728,4.504-1.728c1.526,0,2.833,0.4,3.921,1.2C130.749,79.583,131.266,80.431,131.266,81.37z"/>
		<path d="M146.18,81.37c0,1.067-0.539,1.6-1.616,1.6c-0.374,0-0.667-0.133-0.88-0.4c-0.149-0.246-0.304-0.496-0.464-0.752
			c-0.662-0.853-1.542-1.28-2.641-1.28c-1.888,0-2.833,1.072-2.833,3.217c0,0.747,0.171,1.387,0.512,1.92
			c0.288,0.458,0.806,0.976,1.552,1.552c1.686,1.291,2.736,2.182,3.152,2.672c0.875,1.003,1.313,2.155,1.313,3.457
			c0,1.707-0.555,3.096-1.665,4.168c-1.109,1.072-2.555,1.608-4.336,1.608c-1.696,0-3.088-0.443-4.177-1.328
			c-1.056-0.854-1.584-1.931-1.584-3.232c0-1.313,0.568-1.969,1.705-1.969c0.954,0,1.447,0.731,1.479,2.192
			c0.766,0.918,1.627,1.376,2.585,1.376c0.797,0,1.449-0.243,1.954-0.728s0.758-1.091,0.758-1.816c0-0.662-0.31-1.286-0.928-1.873
			c-0.011-0.021-0.794-0.645-2.352-1.872c-2.155-1.707-3.232-3.707-3.232-6.001c0-1.867,0.573-3.376,1.72-4.529
			c1.146-1.152,2.648-1.728,4.504-1.728c1.526,0,2.833,0.4,3.921,1.2C145.663,79.583,146.18,80.431,146.18,81.37z"/>
		<path d="M153.029,80.538c0,6.433-0.229,11.186-0.688,14.258c-0.182,1.238-0.384,2.07-0.608,2.497
			c-0.288,0.565-0.752,0.848-1.393,0.848c-0.427,0-0.79-0.141-1.088-0.424c-0.299-0.282-0.448-0.621-0.448-1.016
			c0,0.054,0.085-0.314,0.256-1.104c0.203-0.896,0.368-1.915,0.496-3.057c0.171-1.622,0.256-3.435,0.256-5.441
			c0-0.875-0.011-1.797-0.032-2.768s-0.032-1.499-0.032-1.584c0-1.44,0.123-2.443,0.368-3.008c0.256-0.619,0.736-0.928,1.44-0.928
			C152.539,78.81,153.029,79.386,153.029,80.538z M153.717,74.441c0,1.515-0.741,2.272-2.224,2.272
			c-0.598,0-1.102-0.208-1.512-0.625c-0.411-0.416-0.616-0.917-0.616-1.504c0-0.64,0.224-1.184,0.672-1.632
			c0.448-0.448,0.997-0.672,1.648-0.672c0.608,0,1.099,0.198,1.472,0.592C153.531,73.268,153.717,73.79,153.717,74.441z"/>
		<path d="M170.2,81.37c0,1.067-0.539,1.6-1.616,1.6c-0.374,0-0.667-0.133-0.88-0.4c-0.149-0.246-0.304-0.496-0.464-0.752
			c-0.662-0.853-1.542-1.28-2.641-1.28c-1.888,0-2.833,1.072-2.833,3.217c0,0.747,0.171,1.387,0.512,1.92
			c0.288,0.458,0.806,0.976,1.552,1.552c1.686,1.291,2.736,2.182,3.152,2.672c0.875,1.003,1.313,2.155,1.313,3.457
			c0,1.707-0.555,3.096-1.665,4.168c-1.109,1.072-2.555,1.608-4.336,1.608c-1.696,0-3.088-0.443-4.177-1.328
			c-1.056-0.854-1.584-1.931-1.584-3.232c0-1.313,0.568-1.969,1.705-1.969c0.954,0,1.447,0.731,1.479,2.192
			c0.766,0.918,1.627,1.376,2.585,1.376c0.797,0,1.449-0.243,1.954-0.728s0.758-1.091,0.758-1.816c0-0.662-0.31-1.286-0.928-1.873
			c-0.011-0.021-0.794-0.645-2.352-1.872c-2.155-1.707-3.232-3.707-3.232-6.001c0-1.867,0.573-3.376,1.72-4.529
			c1.146-1.152,2.648-1.728,4.504-1.728c1.526,0,2.833,0.4,3.921,1.2C169.683,79.583,170.2,80.431,170.2,81.37z"/>
		<path d="M186.09,83.786c0,0.374-0.118,0.691-0.352,0.952c-0.235,0.262-0.512,0.392-0.832,0.392c-0.16,0-0.771-0.208-1.833-0.624
			s-2.099-0.624-3.112-0.624c-0.32,0-0.656,0.021-1.008,0.064c-0.395,1.739-0.592,3.334-0.592,4.785
			c0,1.867,0.314,3.302,0.944,4.305c0.629,1.003,1.504,1.504,2.625,1.504c0.341,0,0.792-0.109,1.352-0.328
			c0.56-0.218,0.963-0.328,1.208-0.328c0.853,0,1.28,0.501,1.28,1.504c0,0.651-0.352,1.179-1.056,1.584
			c-0.705,0.406-1.665,0.608-2.881,0.608c-4.523,0-6.785-3.014-6.785-9.042c0-1.27,0.155-2.667,0.464-4.193
			c-0.299,0.043-0.944,0.166-1.937,0.368c-0.651,0.128-1.131,0.192-1.44,0.192c-1.142,0-1.712-0.437-1.712-1.312
			c0-1.195,1.968-1.974,5.905-2.336c0.811-2.571,1.803-3.856,2.977-3.856c0.363,0,0.672,0.131,0.928,0.392s0.384,0.579,0.384,0.952
			c0,0.277-0.08,0.627-0.24,1.048c-0.16,0.422-0.32,0.846-0.48,1.272C184.026,81.205,186.09,82.111,186.09,83.786z"/>
		<path d="M202.125,89.003c0,2.923-0.427,5.98-1.28,9.169c-0.427,1.6-1.062,2.401-1.904,2.401c-0.864,0-1.296-0.49-1.296-1.473
			c0-0.224,0.01-0.389,0.032-0.496c-1.088,0.587-2.214,0.88-3.376,0.88c-2.059,0-3.667-0.582-4.825-1.744
			c-1.158-1.163-1.736-2.79-1.736-4.881c0-2.123,0.624-3.806,1.873-5.049c1.248-1.243,2.907-1.864,4.977-1.864
			c1.803,0,3.323,0.603,4.561,1.808c-0.203-4.214-1.766-6.321-4.688-6.321c-0.651,0-1.347,0.195-2.088,0.584
			c-0.742,0.39-1.224,0.584-1.448,0.584c-0.363,0-0.688-0.149-0.976-0.448c-0.288-0.298-0.432-0.64-0.432-1.024
			c0-0.64,0.464-1.232,1.392-1.776c0.992-0.586,2.176-0.88,3.553-0.88C199.57,78.474,202.125,81.983,202.125,89.003z
			 M198.876,92.764c0-2.709-1.275-4.064-3.825-4.064c-2.795,0-4.192,1.344-4.192,4.033c0,2.71,1.387,4.064,4.161,4.064
			c1.206,0,2.149-0.354,2.833-1.064C198.535,95.023,198.876,94.033,198.876,92.764z"/>
		<path d="M221.984,87.819c0,2.539-0.415,5.063-1.244,7.569c-0.51,1.558-1.143,2.336-1.897,2.336c-0.404,0-0.75-0.125-1.037-0.376
			s-0.431-0.552-0.431-0.904c0-0.096,0.256-1.069,0.769-2.92c0.512-1.851,0.768-3.688,0.768-5.513c0-4.15-1.299-6.225-3.896-6.225
			c-1.485,0-2.698,0.549-3.639,1.648c-0.973,1.131-1.459,2.625-1.459,4.481c0,1.035,0.146,2.478,0.44,4.329
			c0.293,1.851,0.44,3.171,0.44,3.96c0,1.835-0.523,2.752-1.568,2.752c-0.534,0-0.902-0.117-1.104-0.352
			c-0.16-0.181-0.293-0.554-0.4-1.12c-0.011-0.661-0.144-2.571-0.4-5.729c-0.438-4.417-0.656-7.553-0.656-9.409
			c0-3.232,0.624-4.849,1.873-4.849c0.405,0,0.752,0.126,1.04,0.376s0.432,0.542,0.432,0.872c0,0.235-0.064,0.678-0.192,1.328
			c-0.128,0.651-0.192,1.2-0.192,1.648v0.368c1.579-2.144,3.499-3.216,5.761-3.216c2.08,0,3.699,0.771,4.856,2.313
			S221.984,84.938,221.984,87.819z"/>
		<path d="M239.091,83.786c0,0.374-0.118,0.691-0.352,0.952c-0.235,0.262-0.512,0.392-0.832,0.392c-0.16,0-0.771-0.208-1.833-0.624
			s-2.099-0.624-3.112-0.624c-0.32,0-0.656,0.021-1.008,0.064c-0.395,1.739-0.592,3.334-0.592,4.785
			c0,1.867,0.314,3.302,0.944,4.305c0.629,1.003,1.504,1.504,2.625,1.504c0.341,0,0.792-0.109,1.352-0.328
			c0.56-0.218,0.963-0.328,1.208-0.328c0.853,0,1.28,0.501,1.28,1.504c0,0.651-0.352,1.179-1.056,1.584
			c-0.705,0.406-1.665,0.608-2.881,0.608c-4.523,0-6.785-3.014-6.785-9.042c0-1.27,0.155-2.667,0.464-4.193
			c-0.299,0.043-0.944,0.166-1.937,0.368c-0.651,0.128-1.131,0.192-1.44,0.192c-1.142,0-1.712-0.437-1.712-1.312
			c0-1.195,1.968-1.974,5.905-2.336c0.811-2.571,1.803-3.856,2.977-3.856c0.363,0,0.672,0.131,0.928,0.392s0.384,0.579,0.384,0.952
			c0,0.277-0.08,0.627-0.24,1.048c-0.16,0.422-0.32,0.846-0.48,1.272C237.026,81.205,239.091,82.111,239.091,83.786z"/>
		<path d="M93.556,115.448c0,0.353-0.198,0.774-0.592,1.265c-0.512,0.587-1.024,1.168-1.536,1.744
			c-2.475,2.924-3.713,6.529-3.713,10.818c0,2.56,0.699,4.875,2.097,6.944c0.32,0.438,0.64,0.875,0.96,1.313
			c0.277,0.405,0.416,0.747,0.416,1.024c0,0.811-0.48,1.216-1.44,1.216c-0.427,0-0.875-0.245-1.344-0.736
			c-2.443-2.528-3.665-5.835-3.665-9.921c0-3.308,0.656-6.161,1.969-8.562c1.088-1.984,2.149-3.542,3.184-4.673
			c0.95-1.035,1.712-1.553,2.289-1.553C93.097,114.328,93.556,114.702,93.556,115.448z"/>
		<path d="M120.136,113.977c0,0.427-0.15,1.525-0.448,3.297c-0.363,2.154-0.629,4.059-0.8,5.713
			c-0.438,4.459-0.656,8.118-0.656,10.978c0,0.789,0.04,1.771,0.12,2.944c0.08,1.174,0.12,1.952,0.12,2.336
			c0,1.44-0.586,2.161-1.759,2.161c-0.744,0-1.536-0.379-2.376-1.137c-0.7-0.64-1.627-1.75-2.78-3.328
			c-3.944-5.463-7.496-11.603-10.656-18.419c-1.109,4-1.766,9.521-1.968,16.563c-0.085,3.029-0.149,4.656-0.192,4.881
			c-0.16,1.024-0.662,1.536-1.504,1.536s-1.387-0.561-1.632-1.681c-0.096-0.459-0.144-1.35-0.144-2.672
			c0-5.739,0.72-12.178,2.161-19.315c0.405-1.974,0.811-3.36,1.216-4.16c0.481-0.939,1.117-1.408,1.907-1.408
			c0.502,0,0.918,0.299,1.25,0.896c0.021,0.021,0.401,0.87,1.138,2.545c3.636,8.215,7.603,14.914,11.9,20.099v-1.184
			c0-6.657,0.501-12.872,1.504-18.644c0.234-1.376,0.496-2.353,0.784-2.928c0.32-0.63,0.747-0.944,1.28-0.944
			C119.624,112.104,120.136,112.729,120.136,113.977z"/>
		<path d="M139.644,124.362c0,1.109-0.384,1.931-1.152,2.464c-0.342,0.235-1.424,0.539-3.249,0.912
			c-2.422,0.502-4.486,0.753-6.193,0.753c-0.779,0-1.718-0.054-2.816-0.16c0,4.021,1.531,6.032,4.592,6.032
			c0.843,0,1.606-0.239,2.289-0.72c0.341-0.234,0.955-0.806,1.84-1.712c0.32-0.331,0.656-0.496,1.008-0.496
			c0.448,0,0.834,0.168,1.16,0.504c0.325,0.336,0.488,0.75,0.488,1.24c0,0.405-0.155,0.778-0.464,1.12
			c-1.835,2.006-3.985,3.009-6.449,3.009c-5.1,0-7.649-2.95-7.649-8.85c0-3.041,0.811-5.665,2.432-7.873
			c1.846-2.507,4.129-3.761,6.849-3.761c2.123,0,3.873,0.709,5.249,2.128C138.955,120.372,139.644,122.176,139.644,124.362z
			 M136.459,124.554c-0.064-1.482-0.451-2.656-1.16-3.521c-0.71-0.863-1.598-1.296-2.665-1.296c-1.387,0-2.608,0.496-3.665,1.488
			c-1.088,1.003-1.899,2.422-2.433,4.257c0.757,0.085,1.563,0.128,2.417,0.128C131.023,125.61,133.525,125.258,136.459,124.554z"/>
		<path d="M159.534,126.395c0,3.137-0.917,5.636-2.752,7.497c-1.835,1.862-4.283,2.793-7.345,2.793
			c-2.539,0-4.528-0.867-5.969-2.601s-2.16-4.143-2.16-7.226c0-3.243,0.869-5.761,2.608-7.553c1.707-1.761,4.075-2.641,7.105-2.641
			c2.539,0,4.593,0.891,6.161,2.672C158.75,121.119,159.534,123.472,159.534,126.395z M156.35,126.427
			c0-2.145-0.52-3.822-1.56-5.033s-2.462-1.816-4.265-1.816c-4.022,0-6.033,2.417-6.033,7.249c0,2.23,0.438,3.945,1.313,5.146
			c0.875,1.2,2.128,1.8,3.761,1.8c2.112,0,3.771-0.646,4.977-1.937C155.747,130.545,156.35,128.741,156.35,126.427z"/>
		<path d="M176.049,128.891c0,0.491-0.384,0.875-1.152,1.152c-0.662,0.246-1.84,0.47-3.537,0.672
			c-0.267,1.622-0.454,3.18-0.56,4.673c-0.043,0.747-0.085,1.494-0.128,2.24c-0.075,0.769-0.222,1.31-0.44,1.625
			c-0.219,0.314-0.605,0.472-1.16,0.472c-1.056,0-1.584-0.72-1.584-2.16c0-0.32,0.261-2.582,0.784-6.785
			c-4.801-0.384-7.201-1.563-7.201-3.537c0-0.938,0.368-2.533,1.104-4.784c0.438-1.302,1.152-2.678,2.145-4.129
			c1.216-1.792,2.261-2.688,3.136-2.688c0.917,0,1.376,0.331,1.376,0.992c0,0.299-0.192,0.736-0.577,1.313
			c-0.47,0.661-0.945,1.328-1.425,2c-1.429,2.06-2.223,4.417-2.383,7.073c1.173,0.63,2.56,0.944,4.161,0.944h0.224
			c1.354-5.59,2.411-8.962,3.168-10.114c0.203-0.309,0.544-0.464,1.024-0.464c0.587,0,1.067,0.134,1.44,0.4
			c0.373,0.267,0.56,0.592,0.56,0.977c0,0.287-0.32,1.253-0.96,2.896c-0.864,2.155-1.558,4.15-2.08,5.985
			c0.533-0.074,1.104-0.187,1.712-0.336c0.512-0.128,0.816-0.192,0.912-0.192C175.569,127.114,176.049,127.707,176.049,128.891z"/>
		<path d="M197.284,114.962c0,0.546-0.158,0.99-0.472,1.333s-0.723,0.514-1.224,0.514c-0.042,0-0.267-0.059-0.672-0.176
			c-0.502-0.149-0.998-0.267-1.488-0.352c0.875,3.966,1.312,7.309,1.312,10.026c0,4.884-0.92,8.588-2.76,11.115
			c-1.84,2.526-4.516,3.79-8.025,3.79c-2.368,0-4.206-0.763-5.513-2.288c-1.307-1.525-1.96-3.659-1.96-6.401
			c0-1.963,0.586-2.944,1.76-2.944c0.597,0,1.011,0.2,1.24,0.6c0.229,0.4,0.344,1.07,0.344,2.009c0,0.139-0.006,0.304-0.016,0.496
			c-0.011,0.192-0.016,0.314-0.016,0.368c0,3.339,1.472,5.009,4.417,5.009c2.305,0,4.073-0.962,5.305-2.887
			c1.232-1.924,1.848-4.704,1.848-8.339c0-3.561-0.47-7.218-1.408-10.97c-1.259-0.31-2.406-0.465-3.44-0.465
			c-0.832,0-1.798,0.131-2.896,0.393c-1.099,0.262-1.798,0.392-2.097,0.392c-1.024,0-1.536-0.573-1.536-1.719
			c0-0.621,0.624-1.141,1.873-1.559c1.333-0.45,3.104-0.675,5.313-0.675c2.945,0,5.729,0.364,8.354,1.092
			C196.697,113.646,197.284,114.191,197.284,114.962z"/>
		<path d="M203.813,126.202c0,3.383-0.565,6.679-1.696,9.89c-0.405,1.142-0.779,1.941-1.12,2.4
			c-0.405,0.544-0.896,0.816-1.472,0.816c-0.79,0-1.184-0.395-1.184-1.185c0-0.16,0.265-0.954,0.795-2.384
			c1.167-3.222,1.75-6.172,1.75-8.85c0-2.411-0.323-4.577-0.97-6.497c-0.36-1.024-0.721-2.054-1.081-3.089
			c-0.308-0.885-0.461-1.515-0.461-1.888c0-0.832,0.405-1.248,1.216-1.248c0.587,0,1.094,0.341,1.521,1.023
			c0.298,0.47,0.73,1.462,1.296,2.977C203.344,120.666,203.813,123.344,203.813,126.202z"/>
	</g>
	<g>
		<path d="M373.785,162.606c0-0.332-0.063,1.031-0.187,4.089s-0.187,6.28-0.187,9.666c0,2.544,0.016,4.938,0.047,7.181
			s0.047,3.219,0.047,2.929c0,1.547-0.556,2.321-1.667,2.321c-0.634,0-1.07-0.218-1.309-0.654c-0.166-0.301-0.27-0.813-0.312-1.534
			s-0.063-1.924-0.063-3.606v-6.901c-1.256,0.021-2.991,0.031-5.203,0.031c-4.092,0-7.27-0.052-9.534-0.156
			c-0.114,2.451-0.171,4.782-0.171,6.994c0,0.665,0.005,1.379,0.016,2.142s0.016,1.187,0.016,1.27c0,1.06-0.114,1.802-0.343,2.228
			c-0.249,0.467-0.696,0.701-1.339,0.701c-0.624,0-1.06-0.224-1.309-0.67c-0.239-0.416-0.358-1.116-0.358-2.103
			c0-2.025,0.067-5.639,0.203-10.842c-0.707-0.343-1.06-0.779-1.06-1.309c0-0.727,0.384-1.184,1.153-1.371
			c0.166-2.908,0.4-6.215,0.701-9.923c0.208-1.319,0.826-1.979,1.854-1.979c1.018,0,1.527,0.624,1.527,1.87
			c0,0.104-0.078,1.09-0.234,2.959c-0.197,2.327-0.364,4.673-0.499,7.042c1.163,0.042,2.991,0.062,5.483,0.062
			c3.167,0,6.21-0.088,9.128-0.265c0.083-5.442,0.177-8.791,0.281-10.048c0.125-1.485,0.701-2.228,1.729-2.228
			C373.255,160.503,373.785,161.205,373.785,162.606z"/>
		<path d="M401.03,165.707c0,0.405-0.153,0.771-0.459,1.098c-0.307,0.327-0.642,0.491-1.005,0.491c-0.249,0-0.556-0.088-0.919-0.265
			c-0.488-0.239-0.779-0.374-0.873-0.405c-1.36-0.436-3.988-0.769-7.882-0.997c0.125,4.788,0.187,8.309,0.187,10.562
			c0,4.382-0.104,8.116-0.312,11.2c-0.073,0.997-0.229,1.698-0.467,2.103c-0.26,0.446-0.691,0.67-1.293,0.67
			c-0.997,0-1.496-0.67-1.496-2.01c0-0.052,0.081-1.446,0.242-4.183c0.161-2.736,0.241-5.444,0.241-8.124
			c0-1.475-0.052-4.892-0.156-10.25c-3.822,0.042-6.527,0.498-8.116,1.371c-0.187,2.087-0.82,3.131-1.9,3.131
			c-0.873,0-1.309-0.649-1.309-1.947c0-2.087,0.66-3.448,1.979-4.082c2.232-1.059,5.675-1.589,10.328-1.589
			C396.627,162.482,401.03,163.557,401.03,165.707z"/>
		<path d="M424.381,165.707c0,0.405-0.153,0.771-0.459,1.098c-0.307,0.327-0.642,0.491-1.005,0.491
			c-0.249,0-0.556-0.088-0.919-0.265c-0.488-0.239-0.779-0.374-0.873-0.405c-1.36-0.436-3.988-0.769-7.882-0.997
			c0.125,4.788,0.187,8.309,0.187,10.562c0,4.382-0.104,8.116-0.312,11.2c-0.073,0.997-0.229,1.698-0.467,2.103
			c-0.26,0.446-0.691,0.67-1.293,0.67c-0.997,0-1.496-0.67-1.496-2.01c0-0.052,0.081-1.446,0.242-4.183
			c0.161-2.736,0.241-5.444,0.241-8.124c0-1.475-0.052-4.892-0.156-10.25c-3.822,0.042-6.527,0.498-8.116,1.371
			c-0.187,2.087-0.82,3.131-1.9,3.131c-0.873,0-1.309-0.649-1.309-1.947c0-2.087,0.66-3.448,1.979-4.082
			c2.232-1.059,5.675-1.589,10.328-1.589C419.978,162.482,424.381,163.557,424.381,165.707z"/>
		<path d="M444.757,168.76c0,2.814-0.756,5.081-2.267,6.8c-1.511,1.719-3.466,2.578-5.865,2.578c-1.454,0-2.679-0.258-3.676-0.776
			c-0.924-0.497-1.386-1.06-1.386-1.691v-0.078c0-0.434,0.129-0.807,0.389-1.117s0.577-0.466,0.95-0.466
			c0.177,0,0.678,0.177,1.503,0.53s1.576,0.53,2.251,0.53c1.412,0,2.581-0.567,3.505-1.7s1.387-2.579,1.387-4.336
			c0-1.809-0.701-3.27-2.103-4.383c-1.402-1.113-3.246-1.669-5.53-1.669c-0.665,0-1.61,0.078-2.835,0.233
			c0.187,2.981,0.28,5.276,0.28,6.886c0,3.489-0.073,6.604-0.218,9.346c-0.177,3.261-0.571,6.112-1.184,8.552
			c-0.218,0.873-0.686,1.309-1.402,1.309c-1.101,0-1.651-0.743-1.651-2.228c0,0.166,0.306-2.207,0.919-7.119
			c0.208-1.692,0.312-3.895,0.312-6.605c0-3.624-0.083-6.698-0.249-9.222c-0.727,0.374-1.532,0.987-2.415,1.838
			c-0.665,0.644-1.189,0.966-1.574,0.966c-0.426,0-0.797-0.156-1.114-0.467c-0.316-0.312-0.475-0.675-0.475-1.09
			c0-0.457,0.437-1.106,1.309-1.947c2.482-2.378,5.779-3.567,9.892-3.567c3.448,0,6.184,0.802,8.209,2.407
			C443.744,163.876,444.757,166.039,444.757,168.76z"/>
		<path d="M456.798,162.062c0,0.28-0.416,1.225-1.246,2.835c-0.936,1.828-1.668,3.36-2.199,4.595
			c-1.05,2.493-1.955,5.183-2.713,8.069c-0.51,1.911-0.92,3.869-1.232,5.873c-0.27,1.724-0.425,2.638-0.467,2.741
			c-0.217,0.571-0.415,0.956-0.591,1.153c-0.228,0.26-0.549,0.39-0.964,0.39c-0.425,0-0.78-0.148-1.065-0.444
			c-0.286-0.296-0.428-0.683-0.428-1.161c0-0.966,0.421-3.25,1.263-6.854c0.821-3.438,1.632-6.247,2.432-8.428
			c1.331-3.593,2.567-6.376,3.711-8.35c0.622-1.09,1.312-1.636,2.068-1.636c0.404,0,0.744,0.122,1.019,0.366
			C456.661,161.457,456.798,161.74,456.798,162.062z"/>
		<path d="M386.52,224.755c0,0.779-0.416,1.532-1.248,2.259v-0.031c-0.791,0.685-1.877,1.028-3.26,1.028
			c-1.789,0-3.12-0.312-3.993-0.935c-0.26-0.187-0.581-0.504-0.965-0.95c-0.623-0.716-0.98-1.122-1.074-1.215
			c-3.289-3.479-5.551-5.52-6.785-6.122c-0.54-0.197-1.072-0.402-1.595-0.615c-0.524-0.213-0.786-0.605-0.786-1.176
			c0-0.976,0.826-1.527,2.477-1.651c1.776-0.145,3.219-0.859,4.331-2.142c1.111-1.283,1.667-2.859,1.667-4.728
			c0-4.227-2.689-6.34-8.069-6.34h-0.25c-1.34,5.483-2.009,11.382-2.009,17.696c0,1.09,0.031,2.238,0.093,3.443
			s0.093,1.859,0.093,1.963c0,1.443-0.498,2.165-1.495,2.165c-0.81,0-1.34-0.493-1.589-1.48c-0.198-0.789-0.296-2.404-0.296-4.845
			c0-7.498,0.648-13.708,1.947-18.631c-3.832,0.644-5.951,0.966-6.355,0.966c-1.485,0-2.228-0.535-2.228-1.604
			c0-0.664,0.275-1.122,0.826-1.371c0.322-0.135,0.732-0.213,1.23-0.234c0.426-0.021,0.857-0.036,1.293-0.046
			c0.322-0.031,1.662-0.239,4.019-0.623c1.755-0.291,3.266-0.437,4.533-0.437c7.716,0,11.574,3.064,11.574,9.191
			c0,1.942-0.535,3.736-1.604,5.382c-1.07,1.646-2.565,2.936-4.486,3.871c1.505,1.142,2.985,2.477,4.439,4.003
			c1.724,1.807,2.606,2.726,2.648,2.757c0.53,0.468,1.402,0.701,2.617,0.701c0.582,0,0.95-0.083,1.106-0.249
			c0.333-0.354,0.665-0.706,0.997-1.06c0.343-0.312,0.67-0.467,0.981-0.467c0.332,0,0.618,0.146,0.857,0.436
			C386.4,223.956,386.52,224.319,386.52,224.755z"/>
		<path d="M404.201,222.746c0,0.883-1.054,1.724-3.163,2.523c-2.035,0.769-4.45,1.277-7.243,1.527
			c-1.672,0.145-4.149,0.218-7.431,0.218c-1.163,0-1.953-0.042-2.368-0.125c-1.039-0.197-1.558-0.644-1.558-1.339
			c0-0.426,0.143-0.787,0.429-1.083c0.285-0.296,0.631-0.444,1.036-0.444h1.433c0.509-2.523,0.763-7.851,0.763-15.982
			c0-0.343-0.021-2.238-0.062-5.686c-0.343,0-0.696,0.005-1.06,0.016c-0.363,0.01-0.55,0.016-0.561,0.016
			c-1.09,0-1.636-0.478-1.636-1.433c0-0.633,0.286-1.075,0.857-1.324c0.529-0.218,1.438-0.327,2.726-0.327
			c5.39,0,9.694,0.488,12.914,1.464c2.15,0.654,3.225,1.417,3.225,2.29c0,0.363-0.138,0.693-0.413,0.989
			c-0.275,0.296-0.574,0.444-0.896,0.444c-0.187,0-0.586-0.125-1.199-0.374c-0.769-0.322-1.423-0.545-1.963-0.67
			c-1.413-0.353-4.367-0.675-8.864-0.966c0,1.88-0.021,4.86-0.062,8.942c1.309,0.083,2.565,0.125,3.77,0.125
			c0.841,0,1.714-0.031,2.617-0.094c0.903-0.062,1.392-0.093,1.464-0.093c1.122,0,1.682,0.478,1.682,1.433
			c0,0.748-0.473,1.22-1.417,1.417c-0.644,0.135-2.093,0.203-4.346,0.203c-1.246,0-2.523-0.031-3.832-0.093
			c-0.104,4.767-0.296,8.001-0.576,9.705h0.639c4.164,0,7.3-0.312,9.409-0.935c0.571-0.166,1.381-0.514,2.43-1.044
			c0.841-0.425,1.459-0.639,1.854-0.639c0.374,0,0.701,0.135,0.981,0.405C404.061,222.081,404.201,222.393,404.201,222.746z"/>
		<path d="M424.125,201.311c0,0.301-0.057,0.789-0.171,1.464c-0.115,0.675-0.171,1.184-0.171,1.527v0.483
			c0,1.132-0.073,1.885-0.218,2.259c-0.208,0.53-0.649,0.794-1.324,0.794c-0.748,0-1.251-0.485-1.511-1.455
			c-0.135-0.469-0.213-1.262-0.234-2.377c-1.423-1.007-2.913-1.511-4.471-1.511c-1.994,0-3.635,0.645-4.922,1.934
			c-1.288,1.29-1.932,2.938-1.932,4.944c0,1.716,0.41,2.958,1.23,3.728c0.571,0.53,1.817,1.128,3.739,1.793
			c1.734,0.592,2.918,1.039,3.552,1.34c1.08,0.509,1.905,1.106,2.477,1.791c0.852,1.018,1.277,2.368,1.277,4.05
			c0,1.745-0.66,3.126-1.978,4.144c-1.319,1.018-3.126,1.527-5.421,1.527c-1.724,0-3.105-0.426-4.144-1.277l-0.031,3.162
			c-0.01,1.049-0.519,1.573-1.526,1.573c-1.049,0-1.573-0.696-1.573-2.087v-2.258c0-3.001,0.088-4.975,0.265-5.92
			c0.239-1.267,0.758-1.9,1.558-1.9c0.633,0,1.06,0.255,1.277,0.766c0.125,0.313,0.234,0.755,0.327,1.328
			c0.104,0.76,0.187,1.26,0.25,1.5c0.332,1.364,1.381,2.046,3.146,2.046c3.063,0,4.596-0.916,4.596-2.748
			c0-0.906-0.327-1.64-0.981-2.202c-0.54-0.468-1.496-0.953-2.866-1.452l-2.82-1.013c-2.066-0.758-3.515-1.682-4.346-2.772
			c-0.862-1.132-1.293-2.742-1.293-4.829c0-3.033,0.95-5.497,2.851-7.392c1.901-1.896,4.352-2.843,7.353-2.843
			c1.724,0,3.354,0.478,4.891,1.433c0.281-1.09,0.831-1.635,1.651-1.635C423.626,199.224,424.125,199.919,424.125,201.311z"/>
		<path d="M449.111,203.99c0,0.405-0.153,0.771-0.459,1.098c-0.307,0.327-0.642,0.491-1.005,0.491c-0.249,0-0.556-0.088-0.919-0.265
			c-0.488-0.239-0.779-0.374-0.873-0.405c-1.36-0.436-3.988-0.769-7.882-0.997c0.125,4.788,0.187,8.309,0.187,10.562
			c0,4.382-0.104,8.116-0.312,11.2c-0.073,0.997-0.229,1.698-0.467,2.103c-0.26,0.446-0.691,0.67-1.293,0.67
			c-0.997,0-1.496-0.67-1.496-2.01c0-0.052,0.081-1.446,0.242-4.183c0.161-2.736,0.241-5.444,0.241-8.124
			c0-1.475-0.052-4.892-0.156-10.25c-3.822,0.042-6.527,0.498-8.116,1.371c-0.187,2.087-0.82,3.131-1.9,3.131
			c-0.873,0-1.309-0.649-1.309-1.947c0-2.087,0.66-3.448,1.979-4.082c2.232-1.059,5.675-1.589,10.328-1.589
			C444.708,200.766,449.111,201.84,449.111,203.99z"/>
	</g>
</g>
<rect fill-rule="evenodd" clip-rule="evenodd" fill="none" width="789" height="254.012"/>
<g>
</g>
<g>
</g>
<g>
</g>
<g>
</g>
<g>
</g>
<g>
</g>
</svg>
